<?xml version="1.0" encoding="UTF-8" standalone="no"?>
<svg
   xmlns:dc="http://purl.org/dc/elements/1.1/"
   xmlns:cc="http://creativecommons.org/ns#"
   xmlns:rdf="http://www.w3.org/1999/02/22-rdf-syntax-ns#"
   xmlns:svg="http://www.w3.org/2000/svg"
   xmlns="http://www.w3.org/2000/svg"
   viewBox="0 0 530.28162 223.90379"
   height="223.90379"
   width="530.28162"
   id="svg2"
   version="1.1">
  <metadata
     id="metadata8">
    <rdf:RDF>
      <cc:Work
         rdf:about="">
        <dc:format>image/svg+xml</dc:format>
        <dc:type
           rdf:resource="http://purl.org/dc/dcmitype/StillImage" />
        <dc:title></dc:title>
      </cc:Work>
    </rdf:RDF>
  </metadata>
  <defs
     id="defs6" />
  <path
     style="fill:#ebf6cf"
     d="M 92.232996,212.35481 C 53.798031,204.13569 25.250183,177.61249 13.606049,139.30419 11.128713,131.15394 10.893634,128.92887 10.816848,112.9038 10.749138,98.773937 11.10025,93.959457 12.640033,87.903797 17.363681,69.326647 25.611715,54.722077 39.232994,40.816387 52.910575,26.853207 65.419766,19.285437 84.948916,13.159297 l 8.78408,-2.7555 203.318444,-0.26652 c 196.3022,-0.2573201 203.46275,-0.2023901 207.5,1.59184 6.14516,2.73101 10.19911,6.56552 13.10381,12.39449 5.35429,10.74468 2.24449,24.23763 -7.25634,31.48416 -4.88758,3.72788 -8.34499,4.77204 -20.16591,6.09024 -4.675,0.52133 -11.1209,1.95073 -14.32423,3.17645 -12.34079,4.72208 -23.37064,16.09453 -28.79477,29.68917 -1.96658,4.9289 -2.33017,7.634563 -2.33017,17.340173 0,9.70561 0.36359,12.41127 2.33017,17.34017 5.42413,13.59464 16.45398,24.96709 28.79477,29.68917 3.20333,1.22572 9.64923,2.65512 14.32423,3.17645 11.82092,1.3182 15.27833,2.36236 20.16591,6.09024 14.91471,11.37583 12.54379,34.68989 -4.38572,43.12622 l -5.17288,2.57775 -201.05365,-0.0795 C 132.15236,213.758 97.652556,213.51375 92.232996,212.35481 Z"
     id="path849" />
  <path
     style="fill:#e2f5b5"
     d="M 91.232996,211.95 C 70.697056,207.54598 52.825249,197.60886 38.686652,182.7331 30.100575,173.69935 25.884275,167.52461 20.25941,155.74652 13.650825,141.90859 11.228281,131.70393 10.563515,114.9038 9.94561,99.287947 11.746645,88.205587 17.186444,74.150757 c 6.407784,-16.55582 22.001708,-36.05507 36.923943,-46.17115 9.197769,-6.23534 23.374299,-12.67465 33.682659,-15.29945 l 8.93995,-2.27636 H 299.233 h 202.5 l 4,2.16237 c 4.73519,2.55981 9.56274,7.47743 12.11166,12.33763 2.51908,4.80331 2.51908,16.19669 0,21 -5.05017,9.62952 -12.04753,13.81377 -25.17842,15.05607 -15.7972,1.49456 -25.98161,6.30012 -35.58372,16.79031 -17.69084,19.32704 -17.69084,48.980203 0,68.307243 9.60211,10.49019 19.78652,15.29575 35.58372,16.79031 10.36659,0.98078 15.27837,2.97868 20.20481,8.21844 5.24089,5.57422 6.80917,9.5674 6.80917,17.33763 0,10.11587 -4.72447,17.85188 -13.94722,22.83763 l -4,2.16237 -201,0.18453 C 109.62247,213.76378 99.314786,213.68313 91.232996,211.95 Z"
     id="path847" />
  <path
     style="fill:#dbf2a3"
     d="M 95.232996,212.77101 C 81.958286,210.57196 67.135406,204.61023 55.232994,196.68308 15.244842,170.05048 -0.679745,116.18856 18.269061,71.659517 31.798222,39.866457 64.085456,15.343437 98.232996,10.924767 104.23142,10.148577 164.71084,9.9100669 303.733,10.114337 c 218.1403,0.32052 199.80522,-0.2715101 207.7548,6.70831 10.87575,9.54904 10.87575,27.61326 0,37.1623 -5.09222,4.47102 -9.00798,5.84859 -19.54288,6.87519 -17.62518,1.71754 -30.2263,8.75969 -39.1469,21.87728 -6.9082,10.15839 -8.8699,16.60895 -8.8699,29.166383 0,12.55743 1.9617,19.00799 8.8699,29.16638 8.9206,13.11759 21.52172,20.15974 39.1469,21.87728 10.5349,1.0266 14.45066,2.40417 19.54288,6.87519 10.87575,9.54904 10.87575,27.61326 0,37.1623 -7.95731,6.9866 10.76991,6.40387 -210.7548,6.55801 -116.36718,0.081 -202.299914,-0.24184 -205.500004,-0.77195 z"
     id="path845" />
  <path
     style="fill:#cee991"
     d="M 98.232996,213.23815 C 74.972606,209.57899 52.840288,198.04814 37.710502,181.70616 26.340752,169.42548 18.035379,154.11636 13.516349,137.10961 11.280688,128.69601 10.927273,125.2736 10.861838,111.4038 10.775208,93.041377 12.474632,84.635417 19.167581,70.320617 32.654094,41.475827 56.243893,21.597007 87.114106,13.062937 l 9.61889,-2.65914 193.500004,-0.18973 c 190.79363,-0.18708 193.37742,-0.16375 184.73599,1.66793 -38.71389,8.20598 -69.42508,37.61853 -78.91898,75.58186 -1.82414,7.29419 -2.24081,11.79332 -2.26343,24.439943 -0.0344,19.21328 2.01884,28.45614 9.88522,44.5 14.92379,30.43779 43.77214,51.52582 77.14595,56.39338 3.43383,0.50082 -75.04729,0.85676 -187.08475,0.8485 -106.15,-0.008 -194.125004,-0.19122 -195.500004,-0.40753 z"
     id="path843" />
  <path
     style="fill:#c2e27a"
     d="M 94.567126,212.42308 C 70.826216,208.11537 47.954944,194.63326 33.235477,176.26941 8.496088,145.40482 3.354999,101.53208 20.478401,67.403797 c 11.279224,-22.48038 33.225409,-42.41542 55.612175,-50.5159 19.07164,-6.9009301 1.41951,-6.35496 214.142424,-6.62329 187.77547,-0.23686 192.29138,-0.19849 184,1.56362 -18.19675,3.86721 -35.1563,12.79121 -48.95154,25.75797 -14.03143,13.18876 -22.74242,27.43638 -28.68518,46.91721 -2.5055,8.21326 -2.72083,10.29003 -2.7892,26.900393 -0.0651,15.83048 0.20366,19.01644 2.23027,26.43317 10.50542,38.44645 42.21114,67.45188 81.52979,74.58611 5.99284,1.08738 -24.18175,1.30022 -184.33414,1.30022 -152.80404,0 -192.94799,-0.26273 -198.665874,-1.30022 z"
     id="path841" />
  <path
     style="fill:#b4dc63"
     d="M 97.817746,212.79718 C 76.250636,209.65162 56.218998,199.64347 40.670168,184.24528 31.91391,175.57385 26.419196,167.6824 20.673596,155.52641 15.297225,144.1516 12.638993,134.64278 11.181736,121.57287 8.483244,97.370517 14.623381,73.980087 28.9453,53.903797 c 17.514362,-24.55142 43.020306,-39.608 72.7877,-42.96778 5.80258,-0.65492 74.90242,-0.9853401 194.5,-0.93005 155.30332,0.0718 184.4419,0.29799 179,1.3895 -26.09141,5.23329 -50.11906,21.06679 -64.84988,42.73413 -5.49091,8.07649 -12.04248,22.83304 -14.77297,33.2742 -2.25255,8.61351 -2.61782,12.07974 -2.6345,25.000003 -0.0167,12.88926 0.33527,16.33842 2.50088,24.51148 4.75252,17.93607 12.47997,31.53931 25.79441,45.40794 15.11648,15.74568 31.85479,25.10749 52.96206,29.62189 8.32323,1.78016 4.55915,1.81689 -181,1.76639 -104.225,-0.0284 -192.16186,-0.43982 -195.415254,-0.91432 z"
     id="path839" />
  <path
     style="fill:#a8cb53"
     d="m 99.501966,212.83968 c -14.1593,-1.8418 -29.14985,-7.18894 -41.268972,-14.72067 -11.603319,-7.21117 -27.158432,-23.02751 -33.40424,-33.96521 -0.569966,-0.99813 37.764982,-1.25 190.250206,-1.25 h 190.964 l 2.49996,4.25 c 4.4629,7.58705 15.30781,19.31284 23.73514,25.66302 12.99906,9.79508 27.83358,16.56234 42.95494,19.59531 5.43253,1.08963 -24.37466,1.29835 -181.5,1.2709 -103.4,-0.0181 -190.80396,-0.39757 -194.231034,-0.84335 z M 10.661146,105.1538 c 1.395166,-14.244003 5.02277,-27.618253 10.37485,-38.250003 l 2.768729,-5.5 190.714145,-0.25257 c 104.89277,-0.13891 190.71413,-0.0898 190.71413,0.10917 0,0.19895 -1.61589,3.85911 -3.59086,8.13368 -4.38822,9.49774 -7.99219,23.30559 -8.95057,34.292243 l -0.71682,8.21748 H 200.98738 10 Z"
     id="path837" />
</svg>
