<?xml version="1.0" encoding="UTF-8"?>
<svg xmlns="http://www.w3.org/2000/svg" xmlns:xlink="http://www.w3.org/1999/xlink" width="249.55pt" height="254.69pt" viewBox="0 0 249.55 254.69" version="1.2">
<defs>
<clipPath id="clip1">
  <path d="M 31 244 L 42 244 L 42 254.304688 L 31 254.304688 Z M 31 244 "/>
</clipPath>
<clipPath id="clip2">
  <path d="M 183 244 L 193 244 L 193 254.304688 L 183 254.304688 Z M 183 244 "/>
</clipPath>
<clipPath id="clip3">
  <path d="M 220 240 L 228 240 L 228 254.304688 L 220 254.304688 Z M 220 240 "/>
</clipPath>
<clipPath id="clip4">
  <path d="M 243 242 L 249.101562 242 L 249.101562 252 L 243 252 Z M 243 242 "/>
</clipPath>
<clipPath id="clip5">
  <path d="M 51 0.0742188 L 198 0.0742188 L 198 160 L 51 160 Z M 51 0.0742188 "/>
</clipPath>
</defs>
<g id="surface1">
<path style=" stroke:none;fill-rule:nonzero;fill:rgb(61.203003%,24.525452%,12.014771%);fill-opacity:1;" d="M 5.121094 246.441406 C 5.121094 245.617188 4.820312 245.171875 4.265625 245.171875 C 2.855469 245.171875 1.917969 247.804688 1.917969 249.089844 C 1.917969 250.023438 2.25 250.5 2.839844 250.5 C 4.121094 250.5 5.121094 247.726562 5.121094 246.441406 Z M 6.34375 249.167969 C 6.214844 249.582031 6.167969 249.867188 6.167969 250.074219 C 6.167969 250.34375 6.292969 250.484375 6.53125 250.484375 C 6.882812 250.484375 7.230469 249.945312 7.59375 248.882812 L 8.355469 249.121094 C 7.738281 251.054688 6.882812 251.769531 5.914062 251.769531 C 5.167969 251.769531 4.613281 251.292969 4.613281 250.375 C 4.613281 250.261719 4.613281 250.183594 4.628906 250.023438 L 4.519531 249.976562 C 3.917969 251.167969 3.011719 251.769531 2.109375 251.769531 C 0.746094 251.769531 0 250.644531 0 249.246094 C 0 247.632812 0.648438 246.1875 1.507812 245.347656 C 2.25 244.585938 3.09375 244.144531 3.980469 244.144531 C 4.867188 244.144531 5.375 244.761719 5.519531 245.476562 L 5.835938 244.253906 L 7.640625 244.253906 L 6.34375 249.167969 "/>
<path style=" stroke:none;fill-rule:nonzero;fill:rgb(61.203003%,24.525452%,12.014771%);fill-opacity:1;" d="M 16.300781 250.484375 C 16.632812 250.484375 16.964844 249.976562 17.394531 248.882812 L 18.140625 249.121094 C 17.503906 251.039062 16.617188 251.769531 15.714844 251.769531 C 14.855469 251.769531 14.300781 251.214844 14.300781 250.296875 C 14.300781 248.710938 15.347656 247.140625 15.347656 246.0625 C 15.347656 245.695312 15.191406 245.539062 14.921875 245.539062 C 14.191406 245.539062 12.828125 246.742188 11.558594 251.609375 L 9.65625 251.609375 L 11.019531 246.472656 C 11.257812 245.570312 11.210938 245.316406 10.925781 245.316406 C 10.558594 245.316406 10.148438 245.996094 9.6875 246.980469 L 8.941406 246.664062 C 9.625 245.078125 10.417969 244.160156 11.480469 244.160156 C 12.160156 244.160156 12.636719 244.648438 12.636719 245.632812 C 12.636719 246.09375 12.542969 246.664062 12.304688 247.390625 L 12.414062 247.441406 C 13.460938 245.207031 14.632812 244.144531 15.761719 244.144531 C 16.648438 244.144531 17.203125 244.839844 17.203125 245.792969 C 17.203125 247.140625 16.03125 249.167969 16.03125 250.136719 C 16.03125 250.375 16.125 250.484375 16.300781 250.484375 "/>
<path style=" stroke:none;fill-rule:nonzero;fill:rgb(61.203003%,24.525452%,12.014771%);fill-opacity:1;" d="M 24.210938 247.980469 C 24.210938 249.820312 25.113281 250.707031 26.605469 250.707031 C 29.191406 250.707031 30.238281 246.851562 30.238281 244.808594 C 30.238281 242.96875 29.316406 242.082031 27.84375 242.082031 C 25.242188 242.082031 24.210938 245.933594 24.210938 247.980469 Z M 27.921875 240.925781 C 30.523438 240.925781 32.34375 242.777344 32.34375 245.507812 C 32.34375 248.566406 30.046875 251.863281 26.527344 251.863281 C 23.925781 251.863281 22.085938 250.007812 22.085938 247.28125 C 22.085938 244.222656 24.386719 240.925781 27.921875 240.925781 "/>
<g clip-path="url(#clip1)" clip-rule="nonzero">
<path style=" stroke:none;fill-rule:nonzero;fill:rgb(61.203003%,24.525452%,12.014771%);fill-opacity:1;" d="M 36.085938 249.328125 C 36.085938 250.105469 36.417969 250.644531 37.117188 250.644531 C 38.527344 250.644531 39.320312 247.980469 39.320312 246.726562 C 39.320312 245.839844 39.035156 245.378906 38.449219 245.378906 C 37.179688 245.378906 36.085938 247.929688 36.085938 249.328125 Z M 34.800781 245.460938 C 34.4375 245.460938 34.152344 245.917969 33.644531 246.980469 L 32.898438 246.664062 C 33.660156 244.917969 34.40625 244.160156 35.40625 244.160156 C 36.117188 244.160156 36.59375 244.683594 36.59375 245.585938 C 36.59375 245.695312 36.578125 245.839844 36.5625 245.980469 L 36.6875 246.027344 C 37.292969 244.777344 38.257812 244.144531 39.132812 244.144531 C 40.460938 244.144531 41.222656 245.238281 41.222656 246.710938 C 41.222656 249.265625 39.464844 251.625 37.511719 251.625 C 36.671875 251.625 36.007812 251.199219 35.707031 250.5625 L 35.070312 252.925781 L 36.5625 252.925781 L 36.246094 254.101562 L 31.851562 254.101562 L 32.171875 252.925781 L 33.25 252.925781 L 34.929688 246.648438 C 35.167969 245.761719 35.085938 245.460938 34.800781 245.460938 "/>
</g>
<path style=" stroke:none;fill-rule:nonzero;fill:rgb(61.203003%,24.525452%,12.014771%);fill-opacity:1;" d="M 44.171875 247.886719 C 46.375 247.648438 47.183594 246.789062 47.183594 245.808594 C 47.183594 245.363281 46.929688 245.015625 46.457031 245.015625 C 45.347656 245.015625 44.503906 246.519531 44.171875 247.886719 Z M 44.03125 248.628906 C 44.015625 248.757812 44.015625 248.882812 44.015625 248.996094 C 44.015625 250.308594 44.695312 250.722656 45.488281 250.722656 C 46.265625 250.722656 47.042969 250.199219 47.707031 249.265625 L 48.375 249.742188 C 47.566406 250.898438 46.582031 251.769531 44.902344 251.769531 C 43.269531 251.769531 42.128906 250.628906 42.128906 248.882812 C 42.128906 246.441406 44.234375 244.144531 46.726562 244.144531 C 48.089844 244.144531 48.851562 244.824219 48.851562 245.792969 C 48.851562 247.21875 47.359375 248.441406 44.03125 248.628906 "/>
<path style=" stroke:none;fill-rule:nonzero;fill:rgb(61.203003%,24.525452%,12.014771%);fill-opacity:1;" d="M 57.015625 250.484375 C 57.347656 250.484375 57.679688 249.976562 58.109375 248.882812 L 58.855469 249.121094 C 58.222656 251.039062 57.332031 251.769531 56.429688 251.769531 C 55.574219 251.769531 55.019531 251.214844 55.019531 250.296875 C 55.019531 248.710938 56.0625 247.140625 56.0625 246.0625 C 56.0625 245.695312 55.90625 245.539062 55.636719 245.539062 C 54.90625 245.539062 53.542969 246.742188 52.273438 251.609375 L 50.371094 251.609375 L 51.734375 246.472656 C 51.972656 245.570312 51.925781 245.316406 51.640625 245.316406 C 51.277344 245.316406 50.863281 245.996094 50.402344 246.980469 L 49.660156 246.664062 C 50.339844 245.078125 51.132812 244.160156 52.195312 244.160156 C 52.878906 244.160156 53.351562 244.648438 53.351562 245.632812 C 53.351562 246.09375 53.257812 246.664062 53.019531 247.390625 L 53.128906 247.441406 C 54.175781 245.207031 55.351562 244.144531 56.476562 244.144531 C 57.363281 244.144531 57.917969 244.839844 57.917969 245.792969 C 57.917969 247.140625 56.746094 249.167969 56.746094 250.136719 C 56.746094 250.375 56.839844 250.484375 57.015625 250.484375 "/>
<path style=" stroke:none;fill-rule:nonzero;fill:rgb(61.203003%,24.525452%,12.014771%);fill-opacity:1;" d="M 60.503906 247.902344 L 61.628906 247.902344 C 61.929688 249.804688 63.039062 250.738281 64.4375 250.738281 C 65.6875 250.738281 66.417969 249.945312 66.417969 249.121094 C 66.417969 248.203125 65.371094 247.773438 64.246094 247.25 C 62.929688 246.664062 61.488281 245.964844 61.488281 244.285156 C 61.488281 242.511719 63.085938 240.925781 65.195312 240.925781 C 66.320312 240.925781 67.367188 241.382812 67.890625 242.128906 L 68.542969 240.972656 L 69.730469 240.972656 L 68.796875 244.730469 L 67.6875 244.730469 C 67.351562 242.765625 66.558594 242.035156 65.195312 242.035156 C 64.164062 242.035156 63.4375 242.777344 63.4375 243.601562 C 63.4375 244.601562 64.515625 245.03125 65.65625 245.539062 C 66.957031 246.09375 68.351562 246.757812 68.351562 248.425781 C 68.351562 250.375 66.625 251.863281 64.453125 251.863281 C 63.070312 251.863281 62.042969 251.359375 61.4375 250.59375 L 60.742188 251.816406 L 59.550781 251.816406 L 60.503906 247.902344 "/>
<path style=" stroke:none;fill-rule:nonzero;fill:rgb(61.203003%,24.525452%,12.014771%);fill-opacity:1;" d="M 73.550781 245.441406 L 72.601562 248.914062 C 72.488281 249.3125 72.410156 249.675781 72.410156 249.867188 C 72.410156 250.296875 72.632812 250.4375 72.964844 250.4375 C 73.535156 250.4375 74.011719 249.742188 74.457031 248.726562 L 75.214844 248.980469 C 74.441406 251.230469 73.21875 251.769531 72.363281 251.769531 C 71.316406 251.769531 70.570312 251.246094 70.570312 250.167969 C 70.570312 249.707031 70.746094 249.042969 70.855469 248.597656 L 71.710938 245.441406 L 70.316406 245.441406 L 70.570312 244.476562 L 71.964844 244.476562 L 72.488281 242.574219 L 74.375 242.367188 L 73.804688 244.476562 L 76.058594 244.476562 L 75.804688 245.441406 L 73.550781 245.441406 "/>
<path style=" stroke:none;fill-rule:nonzero;fill:rgb(61.203003%,24.525452%,12.014771%);fill-opacity:1;" d="M 81.574219 246.441406 C 81.574219 245.617188 81.273438 245.171875 80.71875 245.171875 C 79.308594 245.171875 78.371094 247.804688 78.371094 249.089844 C 78.371094 250.023438 78.703125 250.5 79.292969 250.5 C 80.574219 250.5 81.574219 247.726562 81.574219 246.441406 Z M 82.796875 249.167969 C 82.667969 249.582031 82.621094 249.867188 82.621094 250.074219 C 82.621094 250.34375 82.746094 250.484375 82.984375 250.484375 C 83.335938 250.484375 83.683594 249.945312 84.046875 248.882812 L 84.808594 249.121094 C 84.191406 251.054688 83.335938 251.769531 82.367188 251.769531 C 81.621094 251.769531 81.066406 251.292969 81.066406 250.375 C 81.066406 250.261719 81.066406 250.183594 81.082031 250.023438 L 80.972656 249.976562 C 80.371094 251.167969 79.464844 251.769531 78.5625 251.769531 C 77.199219 251.769531 76.453125 250.644531 76.453125 249.246094 C 76.453125 247.632812 77.101562 246.1875 77.960938 245.347656 C 78.703125 244.585938 79.546875 244.144531 80.433594 244.144531 C 81.320312 244.144531 81.828125 244.761719 81.972656 245.476562 L 82.289062 244.253906 L 84.09375 244.253906 L 82.796875 249.167969 "/>
<path style=" stroke:none;fill-rule:nonzero;fill:rgb(61.203003%,24.525452%,12.014771%);fill-opacity:1;" d="M 92.070312 246.015625 C 92.070312 246.695312 91.644531 247.378906 90.960938 247.378906 C 90.390625 247.378906 90.027344 246.996094 90.027344 246.519531 C 90.027344 246.078125 90.296875 245.710938 90.675781 245.441406 C 90.546875 245.222656 90.277344 245.046875 89.804688 245.046875 C 88.21875 245.046875 87.28125 247.472656 87.28125 248.851562 C 87.28125 250.214844 88.011719 250.644531 88.726562 250.644531 C 89.453125 250.644531 90.152344 250.121094 90.785156 249.136719 L 91.46875 249.597656 C 90.785156 250.785156 89.851562 251.769531 88.296875 251.769531 C 86.554688 251.769531 85.378906 250.582031 85.378906 248.851562 C 85.378906 246.378906 87.503906 244.144531 89.773438 244.144531 C 91.105469 244.144531 92.070312 244.886719 92.070312 246.015625 "/>
<path style=" stroke:none;fill-rule:nonzero;fill:rgb(61.203003%,24.525452%,12.014771%);fill-opacity:1;" d="M 98.792969 250.484375 C 99.144531 250.484375 99.445312 249.976562 99.855469 248.882812 L 100.601562 249.121094 C 100 251.039062 99.175781 251.769531 98.253906 251.769531 C 97.367188 251.769531 96.78125 251.183594 96.78125 250.152344 C 96.78125 249.707031 96.953125 249.074219 96.953125 248.726562 C 96.953125 248.136719 96.699219 247.996094 95.542969 247.996094 L 95.511719 247.996094 L 94.542969 251.609375 L 92.753906 251.609375 L 95.320312 241.921875 L 94.003906 241.921875 L 94.320312 240.6875 L 97.476562 240.6875 L 95.703125 247.28125 L 95.78125 247.28125 C 96.621094 247.28125 96.96875 246.808594 97.667969 245.648438 C 98.191406 244.792969 98.714844 244.144531 99.648438 244.144531 C 100.410156 244.144531 100.824219 244.617188 100.824219 245.300781 C 100.824219 245.964844 100.394531 246.632812 99.746094 246.632812 C 99.109375 246.632812 98.777344 246.078125 99 245.425781 C 98.777344 245.476562 98.539062 245.746094 98.175781 246.347656 C 97.859375 246.933594 97.605469 247.265625 97.128906 247.519531 C 98.253906 247.613281 98.617188 248.105469 98.617188 248.851562 C 98.617188 249.3125 98.492188 249.769531 98.492188 250.058594 C 98.492188 250.375 98.617188 250.484375 98.792969 250.484375 "/>
<path style=" stroke:none;fill-rule:nonzero;fill:rgb(61.203003%,24.525452%,12.014771%);fill-opacity:1;" d="M 107.464844 247.441406 C 107.464844 244.253906 109.8125 240.925781 113.300781 240.925781 C 114.617188 240.925781 115.597656 241.398438 116.140625 242.207031 L 116.789062 240.972656 L 118.011719 240.972656 L 116.996094 245.09375 L 115.804688 245.09375 C 115.648438 242.8125 114.648438 242.082031 113.363281 242.082031 C 110.558594 242.082031 109.589844 245.855469 109.589844 247.597656 C 109.589844 249.707031 110.667969 250.59375 112.046875 250.59375 C 113.730469 250.59375 114.710938 249.328125 115.503906 247.457031 L 116.628906 247.851562 C 115.835938 250.074219 114.363281 251.863281 111.828125 251.863281 C 108.910156 251.863281 107.464844 250.007812 107.464844 247.441406 "/>
<path style=" stroke:none;fill-rule:nonzero;fill:rgb(61.203003%,24.525452%,12.014771%);fill-opacity:1;" d="M 121.863281 245.015625 C 120.386719 245.015625 119.546875 247.902344 119.546875 249.4375 C 119.546875 250.453125 119.976562 250.882812 120.65625 250.882812 C 122.132812 250.882812 122.972656 247.996094 122.972656 246.457031 C 122.972656 245.441406 122.546875 245.015625 121.863281 245.015625 Z M 124.859375 247.203125 C 124.859375 249.675781 122.878906 251.769531 120.671875 251.769531 C 118.851562 251.769531 117.660156 250.484375 117.660156 248.691406 C 117.660156 246.21875 119.640625 244.144531 121.847656 244.144531 C 123.671875 244.144531 124.859375 245.410156 124.859375 247.203125 "/>
<path style=" stroke:none;fill-rule:nonzero;fill:rgb(61.203003%,24.525452%,12.014771%);fill-opacity:1;" d="M 135.164062 250.296875 C 135.164062 248.710938 136.210938 247.140625 136.210938 246.0625 C 136.210938 245.695312 136.050781 245.539062 135.78125 245.539062 C 135.085938 245.539062 133.707031 246.742188 132.4375 251.609375 L 130.566406 251.609375 L 131.675781 247.425781 C 131.820312 246.902344 131.898438 246.519531 131.898438 246.21875 C 131.898438 245.839844 131.773438 245.539062 131.421875 245.539062 C 130.695312 245.539062 129.328125 246.742188 128.0625 251.609375 L 126.160156 251.609375 L 127.523438 246.472656 C 127.761719 245.570312 127.710938 245.316406 127.425781 245.316406 C 127.0625 245.316406 126.652344 245.996094 126.191406 246.980469 L 125.445312 246.664062 C 126.128906 245.078125 126.921875 244.160156 127.980469 244.160156 C 128.664062 244.160156 129.140625 244.648438 129.140625 245.632812 C 129.140625 246.09375 129.042969 246.664062 128.808594 247.390625 L 128.917969 247.441406 C 129.964844 245.207031 131.136719 244.144531 132.214844 244.144531 C 133.089844 244.144531 133.546875 244.730469 133.546875 245.683594 C 133.546875 246.125 133.421875 246.664062 133.183594 247.390625 L 133.292969 247.441406 C 134.339844 245.207031 135.511719 244.144531 136.640625 244.144531 C 137.511719 244.144531 138.066406 244.839844 138.066406 245.792969 C 138.066406 247.140625 136.894531 249.167969 136.894531 250.136719 C 136.894531 250.375 136.988281 250.484375 137.164062 250.484375 C 137.496094 250.484375 137.828125 249.976562 138.257812 248.882812 L 139.003906 249.121094 C 138.367188 251.039062 137.480469 251.769531 136.578125 251.769531 C 135.71875 251.769531 135.164062 251.214844 135.164062 250.296875 "/>
<path style=" stroke:none;fill-rule:nonzero;fill:rgb(61.203003%,24.525452%,12.014771%);fill-opacity:1;" d="M 149.070312 250.296875 C 149.070312 248.710938 150.117188 247.140625 150.117188 246.0625 C 150.117188 245.695312 149.957031 245.539062 149.6875 245.539062 C 148.992188 245.539062 147.613281 246.742188 146.34375 251.609375 L 144.472656 251.609375 L 145.582031 247.425781 C 145.722656 246.902344 145.804688 246.519531 145.804688 246.21875 C 145.804688 245.839844 145.675781 245.539062 145.328125 245.539062 C 144.597656 245.539062 143.234375 246.742188 141.96875 251.609375 L 140.0625 251.609375 L 141.429688 246.472656 C 141.664062 245.570312 141.617188 245.316406 141.332031 245.316406 C 140.96875 245.316406 140.554688 245.996094 140.097656 246.980469 L 139.351562 246.664062 C 140.03125 245.078125 140.824219 244.160156 141.886719 244.160156 C 142.570312 244.160156 143.046875 244.648438 143.046875 245.632812 C 143.046875 246.09375 142.949219 246.664062 142.710938 247.390625 L 142.824219 247.441406 C 143.871094 245.207031 145.042969 244.144531 146.121094 244.144531 C 146.992188 244.144531 147.453125 244.730469 147.453125 245.683594 C 147.453125 246.125 147.328125 246.664062 147.089844 247.390625 L 147.199219 247.441406 C 148.246094 245.207031 149.417969 244.144531 150.542969 244.144531 C 151.417969 244.144531 151.972656 244.839844 151.972656 245.792969 C 151.972656 247.140625 150.796875 249.167969 150.796875 250.136719 C 150.796875 250.375 150.894531 250.484375 151.070312 250.484375 C 151.402344 250.484375 151.734375 249.976562 152.164062 248.882812 L 152.910156 249.121094 C 152.273438 251.039062 151.386719 251.769531 150.480469 251.769531 C 149.625 251.769531 149.070312 251.214844 149.070312 250.296875 "/>
<path style=" stroke:none;fill-rule:nonzero;fill:rgb(61.203003%,24.525452%,12.014771%);fill-opacity:1;" d="M 158.820312 250.28125 C 158.820312 249.882812 158.917969 249.28125 159.171875 248.46875 L 159.058594 248.425781 C 158.011719 250.722656 156.902344 251.769531 155.761719 251.769531 C 154.890625 251.769531 154.320312 251.089844 154.320312 250.105469 C 154.320312 248.773438 155.445312 246.664062 155.445312 245.761719 C 155.445312 245.539062 155.347656 245.425781 155.207031 245.425781 C 154.871094 245.425781 154.605469 245.773438 154.035156 246.964844 L 153.289062 246.648438 C 153.9375 245.078125 154.777344 244.144531 155.871094 244.144531 C 156.710938 244.144531 157.203125 244.667969 157.203125 245.585938 C 157.203125 247.058594 156.15625 248.742188 156.15625 249.757812 C 156.15625 250.199219 156.332031 250.375 156.601562 250.375 C 157.316406 250.375 158.632812 249.203125 159.929688 244.253906 L 161.835938 244.253906 L 160.535156 249.167969 C 160.40625 249.597656 160.359375 249.867188 160.359375 250.074219 C 160.359375 250.34375 160.503906 250.484375 160.722656 250.484375 C 161.089844 250.484375 161.421875 249.945312 161.785156 248.882812 L 162.546875 249.121094 C 161.929688 251.054688 161.074219 251.769531 160.167969 251.769531 C 159.34375 251.769531 158.820312 251.308594 158.820312 250.28125 "/>
<path style=" stroke:none;fill-rule:nonzero;fill:rgb(61.203003%,24.525452%,12.014771%);fill-opacity:1;" d="M 170.128906 250.484375 C 170.460938 250.484375 170.792969 249.976562 171.21875 248.882812 L 171.964844 249.121094 C 171.332031 251.039062 170.445312 251.769531 169.539062 251.769531 C 168.683594 251.769531 168.128906 251.214844 168.128906 250.296875 C 168.128906 248.710938 169.175781 247.140625 169.175781 246.0625 C 169.175781 245.695312 169.015625 245.539062 168.746094 245.539062 C 168.015625 245.539062 166.652344 246.742188 165.386719 251.609375 L 163.480469 251.609375 L 164.847656 246.472656 C 165.085938 245.570312 165.035156 245.316406 164.75 245.316406 C 164.386719 245.316406 163.976562 245.996094 163.515625 246.980469 L 162.769531 246.664062 C 163.453125 245.078125 164.242188 244.160156 165.304688 244.160156 C 165.988281 244.160156 166.464844 244.648438 166.464844 245.632812 C 166.464844 246.09375 166.367188 246.664062 166.132812 247.390625 L 166.242188 247.441406 C 167.289062 245.207031 168.460938 244.144531 169.589844 244.144531 C 170.472656 244.144531 171.03125 244.839844 171.03125 245.792969 C 171.03125 247.140625 169.855469 249.167969 169.855469 250.136719 C 169.855469 250.375 169.953125 250.484375 170.128906 250.484375 "/>
<path style=" stroke:none;fill-rule:nonzero;fill:rgb(61.203003%,24.525452%,12.014771%);fill-opacity:1;" d="M 175.960938 243.03125 C 175.40625 243.03125 174.976562 242.652344 174.976562 242.019531 C 174.976562 241.367188 175.46875 240.621094 176.308594 240.621094 C 176.910156 240.621094 177.324219 241.003906 177.324219 241.636719 C 177.324219 242.273438 176.800781 243.03125 175.960938 243.03125 Z M 175.199219 250.105469 C 175.199219 250.375 175.3125 250.484375 175.515625 250.484375 C 175.816406 250.484375 176.167969 250.058594 176.640625 248.882812 L 177.386719 249.121094 C 176.769531 250.992188 175.878906 251.769531 174.867188 251.769531 C 174.042969 251.769531 173.4375 251.230469 173.4375 250.28125 C 173.4375 248.773438 174.753906 246.648438 174.753906 245.664062 C 174.753906 245.410156 174.660156 245.316406 174.515625 245.316406 C 174.074219 245.316406 173.675781 245.996094 173.234375 246.980469 L 172.472656 246.664062 C 173.152344 245.078125 173.996094 244.144531 175.074219 244.144531 C 175.898438 244.144531 176.484375 244.730469 176.484375 245.746094 C 176.484375 246.980469 175.199219 249.183594 175.199219 250.105469 "/>
<path style=" stroke:none;fill-rule:nonzero;fill:rgb(61.203003%,24.525452%,12.014771%);fill-opacity:1;" d="M 181.558594 245.441406 L 180.605469 248.914062 C 180.496094 249.3125 180.414062 249.675781 180.414062 249.867188 C 180.414062 250.296875 180.636719 250.4375 180.96875 250.4375 C 181.539062 250.4375 182.015625 249.742188 182.460938 248.726562 L 183.222656 248.980469 C 182.445312 251.230469 181.222656 251.769531 180.367188 251.769531 C 179.320312 251.769531 178.574219 251.246094 178.574219 250.167969 C 178.574219 249.707031 178.75 249.042969 178.863281 248.597656 L 179.71875 245.441406 L 178.324219 245.441406 L 178.574219 244.476562 L 179.972656 244.476562 L 180.496094 242.574219 L 182.382812 242.367188 L 181.8125 244.476562 L 184.0625 244.476562 L 183.808594 245.441406 L 181.558594 245.441406 "/>
<g clip-path="url(#clip2)" clip-rule="nonzero">
<path style=" stroke:none;fill-rule:nonzero;fill:rgb(61.203003%,24.525452%,12.014771%);fill-opacity:1;" d="M 187.804688 245.523438 C 187.804688 246.980469 186.886719 248.40625 186.886719 249.328125 C 186.886719 249.722656 187.058594 249.882812 187.40625 249.882812 C 188.25 249.882812 189.375 248.929688 190.578125 244.253906 L 192.355469 244.253906 L 190.894531 250.375 C 190.214844 253.292969 188.613281 254.304688 186.632812 254.304688 C 185.519531 254.304688 184.1875 254.003906 184.1875 252.832031 C 184.1875 252.324219 184.570312 251.691406 185.28125 251.691406 C 185.917969 251.691406 186.234375 252.132812 186.203125 252.65625 C 186.1875 252.910156 186.042969 253.195312 185.886719 253.339844 C 186.078125 253.402344 186.3125 253.449219 186.617188 253.449219 C 187.851562 253.449219 188.691406 252.453125 189.230469 250.246094 L 189.550781 248.996094 L 189.453125 248.945312 C 188.535156 250.628906 187.550781 251.246094 186.632812 251.246094 C 185.585938 251.246094 185.0625 250.515625 185.0625 249.597656 C 185.0625 248.375 186.078125 246.664062 186.078125 245.761719 C 186.078125 245.554688 185.980469 245.425781 185.839844 245.425781 C 185.441406 245.425781 185.0625 246.078125 184.632812 246.980469 L 183.886719 246.664062 C 184.585938 245.078125 185.457031 244.144531 186.503906 244.144531 C 187.3125 244.144531 187.804688 244.683594 187.804688 245.523438 "/>
</g>
<path style=" stroke:none;fill-rule:nonzero;fill:rgb(61.203003%,24.525452%,12.014771%);fill-opacity:1;" d="M 200.773438 246.316406 C 202.804688 246.316406 203.515625 245.046875 203.515625 243.824219 C 203.515625 242.90625 202.960938 242.351562 201.390625 242.351562 L 200.710938 242.351562 L 199.726562 246.316406 Z M 198.695312 250.421875 L 200.425781 250.421875 L 200.15625 251.609375 L 194.828125 251.609375 L 195.097656 250.421875 L 196.699219 250.421875 L 198.695312 242.367188 L 197.078125 242.367188 L 197.378906 241.175781 L 201.773438 241.175781 C 204.644531 241.175781 205.734375 242.351562 205.734375 243.84375 C 205.734375 245.425781 204.644531 247.441406 200.710938 247.441406 L 199.441406 247.441406 L 198.695312 250.421875 "/>
<path style=" stroke:none;fill-rule:nonzero;fill:rgb(61.203003%,24.525452%,12.014771%);fill-opacity:1;" d="M 208.210938 246.472656 C 208.445312 245.570312 208.398438 245.316406 208.113281 245.316406 C 207.75 245.316406 207.339844 245.996094 206.878906 246.980469 L 206.132812 246.664062 C 206.816406 245.078125 207.605469 244.160156 208.667969 244.160156 C 209.351562 244.160156 209.828125 244.648438 209.828125 245.632812 C 209.828125 246.09375 209.730469 246.648438 209.511719 247.347656 L 209.636719 247.390625 C 210.554688 245.300781 211.316406 244.144531 212.429688 244.144531 C 213.09375 244.144531 213.585938 244.601562 213.585938 245.347656 C 213.585938 246.140625 213.078125 246.773438 212.441406 246.773438 C 211.890625 246.773438 211.460938 246.410156 211.492188 245.746094 C 211.03125 245.933594 209.890625 247.28125 208.75 251.609375 L 206.847656 251.609375 L 208.210938 246.472656 "/>
<path style=" stroke:none;fill-rule:nonzero;fill:rgb(61.203003%,24.525452%,12.014771%);fill-opacity:1;" d="M 218.121094 245.015625 C 216.644531 245.015625 215.804688 247.902344 215.804688 249.4375 C 215.804688 250.453125 216.230469 250.882812 216.914062 250.882812 C 218.386719 250.882812 219.230469 247.996094 219.230469 246.457031 C 219.230469 245.441406 218.800781 245.015625 218.121094 245.015625 Z M 221.117188 247.203125 C 221.117188 249.675781 219.132812 251.769531 216.929688 251.769531 C 215.105469 251.769531 213.917969 250.484375 213.917969 248.691406 C 213.917969 246.21875 215.898438 244.144531 218.105469 244.144531 C 219.925781 244.144531 221.117188 245.410156 221.117188 247.203125 "/>
<g clip-path="url(#clip3)" clip-rule="nonzero">
<path style=" stroke:none;fill-rule:nonzero;fill:rgb(61.203003%,24.525452%,12.014771%);fill-opacity:1;" d="M 225.984375 243.03125 C 225.429688 243.03125 225 242.652344 225 242.019531 C 225 241.367188 225.507812 240.621094 226.332031 240.621094 C 226.933594 240.621094 227.347656 241.003906 227.347656 241.636719 C 227.347656 242.273438 226.824219 243.03125 225.984375 243.03125 Z M 226.285156 246.996094 L 225.285156 250.785156 C 224.621094 253.308594 223.382812 254.304688 221.921875 254.304688 C 220.816406 254.304688 220.339844 253.78125 220.339844 253.179688 C 220.339844 252.59375 220.765625 252.054688 221.386719 252.054688 C 221.921875 252.054688 222.210938 252.453125 222.210938 252.863281 C 222.210938 253.195312 222.082031 253.464844 221.957031 253.625 C 222.636719 253.640625 222.90625 253.226562 223.492188 250.960938 L 224.539062 246.949219 C 224.636719 246.570312 224.777344 246.015625 224.777344 245.683594 C 224.777344 245.394531 224.652344 245.316406 224.507812 245.316406 C 224.128906 245.316406 223.714844 245.996094 223.257812 246.980469 L 222.511719 246.664062 C 223.195312 245.078125 224.019531 244.144531 225.128906 244.144531 C 225.9375 244.144531 226.507812 244.761719 226.507812 245.648438 C 226.507812 246.015625 226.425781 246.457031 226.285156 246.996094 "/>
</g>
<path style=" stroke:none;fill-rule:nonzero;fill:rgb(61.203003%,24.525452%,12.014771%);fill-opacity:1;" d="M 229.851562 247.886719 C 232.054688 247.648438 232.863281 246.789062 232.863281 245.808594 C 232.863281 245.363281 232.609375 245.015625 232.136719 245.015625 C 231.023438 245.015625 230.183594 246.519531 229.851562 247.886719 Z M 229.707031 248.628906 C 229.691406 248.757812 229.691406 248.882812 229.691406 248.996094 C 229.691406 250.308594 230.375 250.722656 231.167969 250.722656 C 231.945312 250.722656 232.722656 250.199219 233.386719 249.265625 L 234.054688 249.742188 C 233.246094 250.898438 232.261719 251.769531 230.582031 251.769531 C 228.949219 251.769531 227.804688 250.628906 227.804688 248.882812 C 227.804688 246.441406 229.914062 244.144531 232.402344 244.144531 C 233.765625 244.144531 234.527344 244.824219 234.527344 245.792969 C 234.527344 247.21875 233.039062 248.441406 229.707031 248.628906 "/>
<path style=" stroke:none;fill-rule:nonzero;fill:rgb(61.203003%,24.525452%,12.014771%);fill-opacity:1;" d="M 242.171875 246.015625 C 242.171875 246.695312 241.742188 247.378906 241.0625 247.378906 C 240.492188 247.378906 240.125 246.996094 240.125 246.519531 C 240.125 246.078125 240.394531 245.710938 240.777344 245.441406 C 240.648438 245.222656 240.378906 245.046875 239.90625 245.046875 C 238.316406 245.046875 237.382812 247.472656 237.382812 248.851562 C 237.382812 250.214844 238.113281 250.644531 238.824219 250.644531 C 239.554688 250.644531 240.253906 250.121094 240.886719 249.136719 L 241.570312 249.597656 C 240.886719 250.785156 239.953125 251.769531 238.398438 251.769531 C 236.652344 251.769531 235.480469 250.582031 235.480469 248.851562 C 235.480469 246.378906 237.605469 244.144531 239.871094 244.144531 C 241.203125 244.144531 242.171875 244.886719 242.171875 246.015625 "/>
<g clip-path="url(#clip4)" clip-rule="nonzero">
<path style=" stroke:none;fill-rule:nonzero;fill:rgb(61.203003%,24.525452%,12.014771%);fill-opacity:1;" d="M 246.59375 245.441406 L 245.644531 248.914062 C 245.535156 249.3125 245.453125 249.675781 245.453125 249.867188 C 245.453125 250.296875 245.675781 250.4375 246.007812 250.4375 C 246.578125 250.4375 247.054688 249.742188 247.5 248.726562 L 248.257812 248.980469 C 247.484375 251.230469 246.261719 251.769531 245.40625 251.769531 C 244.359375 251.769531 243.613281 251.246094 243.613281 250.167969 C 243.613281 249.707031 243.789062 249.042969 243.898438 248.597656 L 244.753906 245.441406 L 243.359375 245.441406 L 243.613281 244.476562 L 245.007812 244.476562 L 245.535156 242.574219 L 247.417969 242.367188 L 246.847656 244.476562 L 249.101562 244.476562 L 248.847656 245.441406 L 246.59375 245.441406 "/>
</g>
<path style=" stroke:none;fill-rule:nonzero;fill:rgb(12.452698%,9.849548%,8.714294%);fill-opacity:1;" d="M 6.742188 206.746094 L 6.742188 205.851562 C 6.742188 192.4375 15.941406 183.113281 28.269531 183.113281 C 34.65625 183.113281 39.320312 185.027344 43.664062 188.539062 L 37.277344 197.292969 C 34.914062 195.183594 32.359375 193.585938 28.527344 193.585938 C 22.839844 193.585938 18.496094 198.570312 18.496094 205.980469 L 18.496094 206.617188 C 18.496094 214.796875 22.90625 219.332031 28.652344 219.332031 C 30.890625 219.332031 32.550781 218.820312 33.828125 217.988281 L 33.828125 211.347656 L 26.738281 211.347656 L 26.738281 202.46875 L 44.625 202.46875 L 44.625 223.804688 C 40.40625 226.933594 34.976562 229.359375 28.207031 229.359375 C 16.003906 229.359375 6.742188 220.738281 6.742188 206.746094 "/>
<path style=" stroke:none;fill-rule:nonzero;fill:rgb(12.452698%,9.849548%,8.714294%);fill-opacity:1;" d="M 50.4375 183.878906 L 61.9375 183.878906 L 61.9375 218.246094 L 79.503906 218.246094 L 79.503906 228.59375 L 50.4375 228.59375 L 50.4375 183.878906 "/>
<path style=" stroke:none;fill-rule:nonzero;fill:rgb(12.452698%,9.849548%,8.714294%);fill-opacity:1;" d="M 106.464844 211.347656 L 102.3125 198.25 L 98.160156 211.347656 Z M 96.625 183.621094 L 108.253906 183.621094 L 124.03125 228.59375 L 111.957031 228.59375 L 109.339844 220.546875 L 95.285156 220.546875 L 92.730469 228.59375 L 80.910156 228.59375 L 96.625 183.621094 "/>
<path style=" stroke:none;fill-rule:nonzero;fill:rgb(12.452698%,9.849548%,8.714294%);fill-opacity:1;" d="M 127.546875 183.878906 L 138.34375 183.878906 L 153.226562 206.363281 L 153.226562 183.878906 L 164.535156 183.878906 L 164.535156 228.59375 L 154.3125 228.59375 L 138.855469 205.148438 L 138.855469 228.59375 L 127.546875 228.59375 L 127.546875 183.878906 "/>
<path style=" stroke:none;fill-rule:nonzero;fill:rgb(12.452698%,9.849548%,8.714294%);fill-opacity:1;" d="M 169.839844 206.683594 L 169.839844 205.917969 C 169.839844 192.117188 178.84375 183.113281 190.597656 183.113281 C 197.625 183.113281 202.417969 185.859375 206.058594 190.136719 L 198.648438 197.996094 C 196.730469 195.695312 194.304688 193.777344 190.789062 193.777344 C 185.554688 193.777344 181.65625 198.441406 181.65625 206.042969 L 181.65625 206.300781 C 181.65625 214.285156 185.617188 218.691406 190.789062 218.691406 C 194.625 218.691406 196.921875 216.648438 198.96875 214.285156 L 206.25 221.695312 C 202.609375 226.167969 197.625 229.359375 190.152344 229.359375 C 178.71875 229.359375 169.839844 220.609375 169.839844 206.683594 "/>
<path style=" stroke:none;fill-rule:nonzero;fill:rgb(12.452698%,9.849548%,8.714294%);fill-opacity:1;" d="M 210.53125 183.878906 L 241.324219 183.878906 L 241.324219 193.972656 L 221.902344 193.972656 L 221.902344 201.316406 L 239.40625 201.316406 L 239.40625 210.835938 L 221.902344 210.835938 L 221.902344 218.5 L 241.578125 218.5 L 241.578125 228.59375 L 210.53125 228.59375 L 210.53125 183.878906 "/>
<path style=" stroke:none;fill-rule:nonzero;fill:rgb(95.887756%,46.02356%,8.729553%);fill-opacity:1;" d="M 131.632812 154.390625 C 121.714844 154.390625 112.414062 150 106.105469 142.332031 C 105.769531 141.976562 105.453125 141.792969 104.726562 141.792969 C 103.707031 141.792969 102.234375 142.171875 100.371094 142.652344 L 100.160156 142.707031 C 96.898438 143.539062 93.601562 143.964844 90.34375 143.964844 C 83.464844 143.964844 76.964844 142.089844 71.542969 138.550781 C 63.585938 133.351562 58.394531 125.105469 56.921875 115.328125 C 54.140625 96.859375 61.335938 85.089844 67.859375 78.464844 C 73.453125 72.785156 83.019531 67.054688 91.777344 67.054688 L 91.800781 67.054688 L 92.15625 64.464844 C 92.09375 64.460938 92.035156 64.457031 91.976562 64.449219 C 91.109375 64.332031 90.386719 63.875 89.9375 63.15625 C 89.148438 61.90625 89.492188 60.359375 89.878906 59.148438 C 89.894531 59.09375 89.914062 59.042969 89.9375 58.988281 C 92.386719 52.9375 95.851562 44.53125 98.453125 38.847656 C 104.265625 26.144531 115.550781 19.429688 131.085938 19.429688 C 147.632812 19.429688 160.632812 26.679688 165.855469 38.820312 C 169.796875 47.980469 175.984375 64.371094 177.207031 67.628906 L 177.214844 67.652344 C 177.664062 68.789062 177.664062 68.789062 178.382812 69.191406 C 178.457031 69.234375 178.53125 69.28125 178.601562 69.332031 C 188.050781 76.140625 194.003906 93.136719 192.453125 108.863281 C 191.265625 120.878906 187.09375 129.886719 180.054688 135.632812 C 173.082031 141.320312 165.167969 142.167969 161.070312 142.167969 C 160.867188 142.167969 160.671875 142.167969 160.472656 142.164062 C 160.101562 142.152344 159.800781 142.144531 159.53125 142.144531 C 158.566406 142.144531 158.554688 142.144531 157.796875 143.050781 C 151.980469 150.574219 143.179688 154.390625 131.632812 154.390625 "/>
<path style=" stroke:none;fill-rule:nonzero;fill:rgb(61.203003%,24.525452%,12.014771%);fill-opacity:1;" d="M 178.601562 69.332031 C 178.53125 69.28125 178.457031 69.234375 178.382812 69.191406 C 177.664062 68.789062 177.664062 68.789062 177.214844 67.652344 L 177.207031 67.628906 C 177.054688 67.230469 176.832031 66.628906 176.542969 65.875 L 173.378906 64.90625 C 174.449219 64.851562 175.332031 64.746094 176.066406 64.609375 C 174.472656 60.40625 171.710938 53.191406 169.097656 46.671875 L 167.703125 46 C 166.496094 42.230469 165.25 38.007812 163.644531 35.140625 C 163.589844 35.15625 163.617188 35.148438 163.644531 35.140625 C 162.988281 33.960938 162.296875 32.863281 161.570312 31.839844 C 159.320312 29.140625 156.570312 26.832031 153.398438 24.96875 C 156.050781 27.382812 158.507812 30.121094 160.738281 33.226562 C 134.230469 19.402344 112.097656 28.011719 103.0625 32.898438 C 104.5 30.929688 106.03125 29.117188 107.636719 27.433594 C 105.019531 29.757812 102.5 32.773438 100.355469 36.691406 C 98.761719 39.609375 97.28125 42.773438 95.992188 46.234375 C 96.027344 46.144531 96.058594 46.054688 96.09375 45.960938 L 95.132812 46.425781 C 93.308594 50.71875 91.433594 55.292969 89.9375 58.988281 C 89.914062 59.042969 89.894531 59.09375 89.878906 59.148438 C 89.492188 60.359375 89.148438 61.90625 89.9375 63.15625 C 90.386719 63.875 91.109375 64.332031 91.976562 64.449219 C 92.035156 64.457031 92.09375 64.460938 92.15625 64.464844 L 91.800781 67.054688 L 91.777344 67.054688 C 87.039062 67.054688 82.070312 68.730469 77.617188 71.167969 L 77.160156 71.503906 L 69.695312 77.8125 C 70.199219 77.761719 70.757812 77.71875 71.394531 77.691406 L 69.3125 80.011719 C 73.863281 97.085938 87.976562 103.6875 101.039062 106.007812 L 101.058594 106.039062 C 101.195312 106.054688 101.34375 106.070312 101.488281 106.085938 C 104.625 106.621094 107.695312 106.914062 110.550781 107.046875 C 117.410156 107.9375 125.09375 109.597656 128.179688 113.519531 C 128.242188 113.933594 128.277344 114.363281 128.277344 114.804688 C 128.277344 122.875 130.839844 117.40625 131.855469 114.910156 C 132.878906 117.40625 135.4375 122.875 135.4375 114.804688 C 135.4375 114.46875 135.460938 114.148438 135.5 113.828125 C 138.417969 109.683594 146.320312 107.960938 153.351562 107.046875 C 156.207031 106.914062 159.277344 106.621094 162.414062 106.085938 C 162.558594 106.070312 162.707031 106.054688 162.84375 106.039062 L 162.863281 106.007812 C 173.269531 104.160156 184.339844 99.59375 190.714844 89.179688 C 188.367188 80.632812 184.070312 73.273438 178.601562 69.332031 "/>
<path style=" stroke:none;fill-rule:nonzero;fill:rgb(61.203003%,24.525452%,12.014771%);fill-opacity:1;" d="M 156 23.492188 C 156.03125 23.511719 156.0625 23.53125 156.085938 23.550781 C 156.136719 23.59375 156.191406 23.632812 156.246094 23.667969 C 161.714844 27.253906 165.75 32.007812 168.238281 37.796875 C 168.851562 39.222656 169.574219 40.949219 170.378906 42.925781 C 170.402344 42.980469 170.425781 43.03125 170.449219 43.082031 C 170.929688 44.046875 171.867188 44.648438 172.898438 44.648438 C 173.59375 44.648438 174.257812 44.359375 174.742188 43.84375 C 175.226562 43.320312 175.46875 42.609375 175.433594 41.835938 C 175.433594 41.765625 175.429688 41.695312 175.421875 41.625 C 175.261719 40.078125 175.089844 38.535156 174.914062 37.050781 C 172.566406 17.3125 169.570312 9.707031 167.46875 6.800781 C 167.449219 6.777344 167.429688 6.753906 167.410156 6.726562 C 167.007812 6.21875 166.066406 5.023438 164.414062 5.023438 C 163.890625 5.023438 163.363281 5.136719 162.667969 5.402344 C 158.339844 7.117188 155.449219 13.746094 154.113281 17.542969 C 154.089844 17.613281 154.066406 17.683594 154.050781 17.757812 L 154.023438 17.851562 C 153.234375 20.101562 153.972656 22.207031 156 23.492188 "/>
<path style=" stroke:none;fill-rule:nonzero;fill:rgb(61.203003%,24.525452%,12.014771%);fill-opacity:1;" d="M 91.292969 44.640625 C 92.199219 44.640625 93.078125 44.148438 93.589844 43.351562 C 93.660156 43.246094 93.722656 43.132812 93.773438 43.015625 C 94.613281 41.054688 95.394531 39.289062 96.09375 37.765625 C 99.058594 31.289062 103.433594 26.195312 109.101562 22.628906 C 109.394531 22.445312 109.640625 22.199219 109.824219 21.90625 C 110.570312 20.71875 110.691406 19.261719 110.164062 17.796875 C 110.140625 17.710938 110.117188 17.625 110.089844 17.542969 C 108.753906 13.746094 105.863281 7.117188 101.503906 5.390625 C 100.839844 5.136719 100.308594 5.023438 99.789062 5.023438 C 98.136719 5.023438 97.191406 6.222656 96.789062 6.734375 C 96.769531 6.757812 96.75 6.78125 96.730469 6.808594 C 94.632812 9.714844 91.636719 17.316406 89.289062 37.050781 C 89.113281 38.53125 88.941406 40.074219 88.78125 41.636719 C 88.773438 41.710938 88.769531 41.789062 88.769531 41.867188 C 88.738281 42.628906 88.984375 43.332031 89.464844 43.851562 C 89.933594 44.355469 90.597656 44.640625 91.292969 44.640625 "/>
<path style=" stroke:none;fill-rule:nonzero;fill:rgb(100%,100%,100%);fill-opacity:1;" d="M 104.121094 100.316406 L 104.132812 100.355469 C 104.253906 100.382812 104.382812 100.414062 104.507812 100.445312 C 107.246094 101.335938 109.949219 101.945312 112.476562 102.359375 C 119.886719 104.367188 128.277344 107.785156 128.277344 114.804688 C 128.277344 122.875 130.839844 117.40625 131.855469 114.910156 C 132.878906 117.40625 135.4375 122.875 135.4375 114.804688 C 135.4375 107.785156 143.832031 104.367188 151.238281 102.359375 C 153.765625 101.945312 156.46875 101.335938 159.203125 100.449219 C 159.328125 100.414062 159.460938 100.382812 159.582031 100.355469 L 159.59375 100.316406 C 169.699219 96.945312 180.140625 89.730469 183.808594 74.546875 C 182.234375 72.464844 180.488281 70.691406 178.601562 69.332031 C 178.53125 69.28125 178.457031 69.234375 178.382812 69.191406 C 177.664062 68.789062 177.664062 68.789062 177.214844 67.652344 L 177.207031 67.628906 C 177.054688 67.230469 176.832031 66.628906 176.542969 65.875 L 176.066406 64.609375 C 177.136719 64.554688 175.332031 64.746094 176.066406 64.609375 C 174.472656 60.40625 171.710938 53.191406 169.097656 46.671875 L 167.621094 45.960938 C 167.886719 46.667969 168.144531 47.378906 168.394531 48.109375 C 168.253906 48.078125 168.113281 48.054688 167.972656 48.027344 C 167.980469 48.058594 167.992188 48.082031 168 48.109375 C 167.136719 47.917969 166.253906 47.816406 165.371094 47.796875 C 158.925781 47.875 152.410156 52.785156 150.449219 64.558594 C 149.191406 72.097656 148.933594 82.546875 145 92.253906 C 144.582031 93.417969 144.125 94.558594 143.613281 95.667969 C 143.613281 95.667969 143.359375 95.925781 142.90625 96.34375 C 140.222656 100.417969 137.109375 101.996094 134.0625 102.210938 C 133.484375 102.730469 133.15625 103.015625 133.15625 103.015625 L 131.855469 111.242188 L 130.558594 103.015625 C 130.558594 103.015625 130.234375 102.734375 129.65625 102.214844 C 126.109375 101.96875 122.476562 99.871094 119.53125 94.144531 C 114.8125 83.921875 114.605469 72.589844 113.269531 64.558594 C 110.996094 50.929688 102.621094 46.496094 95.320312 48.109375 C 95.570312 47.378906 95.828125 46.667969 96.09375 45.960938 L 95.132812 46.425781 C 93.308594 50.71875 91.433594 55.292969 89.9375 58.988281 C 89.914062 59.042969 89.894531 59.09375 89.878906 59.148438 C 89.492188 60.359375 89.148438 61.90625 89.9375 63.15625 C 90.386719 63.875 91.109375 64.332031 91.976562 64.449219 C 92.035156 64.457031 92.09375 64.460938 92.15625 64.464844 L 91.800781 67.054688 L 91.777344 67.054688 C 87.558594 67.054688 83.160156 68.382812 79.101562 70.394531 C 81.746094 88.445312 93.136719 96.652344 104.121094 100.316406 "/>
<path style=" stroke:none;fill-rule:nonzero;fill:rgb(95.887756%,46.02356%,8.729553%);fill-opacity:1;" d="M 108.015625 141.023438 C 113.882812 148.0625 122.472656 152.089844 131.632812 152.089844 C 142 152.089844 149.957031 148.835938 155.320312 142.441406 C 127.859375 153.191406 109.84375 142.214844 108.015625 141.023438 "/>
<path style=" stroke:none;fill-rule:nonzero;fill:rgb(94.515991%,29.447937%,14.942932%);fill-opacity:1;" d="M 65.351562 114.101562 C 62.546875 95.480469 69.757812 83.652344 76.296875 77.011719 C 78.78125 74.492188 81.464844 72.425781 84.171875 70.769531 C 81.976562 67.945312 71.257812 74.488281 66.667969 79.144531 C 60.515625 85.394531 53.949219 98.953125 56.589844 116.480469 C 57.964844 125.597656 64.496094 134.417969 71.894531 139.25 C 76.941406 142.546875 84.882812 143.730469 91.308594 143.730469 C 91.476562 143.730469 90.679688 141.652344 90.847656 141.652344 C 86.863281 140.796875 83.128906 139.261719 79.808594 137.09375 C 71.945312 131.960938 66.8125 123.792969 65.351562 114.101562 "/>
<path style=" stroke:none;fill-rule:nonzero;fill:rgb(12.452698%,9.849548%,8.714294%);fill-opacity:1;" d="M 93.417969 83.914062 C 95.332031 88.207031 99.929688 90.324219 103.6875 88.648438 C 107.445312 86.972656 108.941406 82.132812 107.023438 77.84375 C 105.109375 73.554688 100.511719 71.433594 96.753906 73.113281 C 92.996094 74.785156 91.503906 79.625 93.417969 83.914062 "/>
<path style=" stroke:none;fill-rule:nonzero;fill:rgb(12.452698%,9.849548%,8.714294%);fill-opacity:1;" d="M 170.554688 83.914062 C 168.636719 88.207031 164.042969 90.324219 160.285156 88.648438 C 156.527344 86.972656 155.03125 82.132812 156.945312 77.84375 C 158.863281 73.554688 163.460938 71.433594 167.21875 73.113281 C 170.976562 74.785156 172.46875 79.625 170.554688 83.914062 "/>
<path style=" stroke:none;fill-rule:nonzero;fill:rgb(12.452698%,9.849548%,8.714294%);fill-opacity:1;" d="M 141.289062 95.265625 L 122.832031 95.265625 C 121.152344 95.265625 119.933594 95.820312 119.394531 96.835938 C 118.855469 97.847656 119.074219 99.171875 120.011719 100.558594 L 127.65625 111.910156 C 128.394531 113.21875 128.457031 114.289062 128.457031 115.292969 L 128.460938 125.484375 C 128.363281 126.390625 127.960938 127.472656 126.609375 127.472656 C 126.457031 127.472656 126.296875 127.457031 126.132812 127.433594 C 125.957031 127.402344 125.796875 127.390625 125.644531 127.386719 C 122.316406 126.898438 119.261719 125.800781 116.585938 124.148438 C 116.058594 123.703125 115.648438 122.855469 116.066406 121.820312 C 116.742188 120.519531 117.355469 119.164062 117.945312 117.679688 C 118.171875 117.035156 118.363281 116.296875 118.058594 115.660156 C 117.851562 115.222656 117.425781 114.890625 116.800781 114.671875 L 114.058594 113.695312 C 113.660156 113.566406 113.324219 113.503906 113.023438 113.503906 C 112.003906 113.503906 111.589844 114.25 111.277344 114.957031 C 109.113281 120.417969 106.660156 123.824219 102.824219 126.695312 C 102.21875 127.085938 101.859375 127.542969 101.753906 128.058594 C 101.652344 128.574219 101.808594 129.136719 102.21875 129.726562 L 104.027344 132.441406 C 104.328125 132.976562 104.851562 133.296875 105.417969 133.296875 C 105.789062 133.296875 106.160156 133.167969 106.519531 132.914062 C 107.785156 131.996094 108.917969 131.058594 109.960938 130.0625 C 110.71875 129.503906 111.554688 129.554688 112.703125 130.253906 L 112.828125 130.3125 C 117.753906 133.371094 123.460938 134.921875 129.789062 134.921875 C 135.089844 134.921875 139.5 133.808594 141.667969 133.144531 C 142.339844 132.890625 142.710938 132.621094 142.867188 132.265625 C 143.054688 131.847656 142.933594 131.355469 142.660156 130.644531 L 141.464844 127.582031 C 141.175781 126.921875 140.757812 126.246094 139.878906 126.246094 C 139.617188 126.246094 139.328125 126.304688 139.007812 126.417969 C 138.390625 126.59375 137.738281 126.757812 137.105469 126.898438 L 137.058594 126.898438 C 136.15625 126.898438 135.753906 125.734375 135.660156 125.070312 L 135.660156 114.40625 C 135.722656 113.59375 135.929688 112.871094 136.292969 112.160156 L 144.105469 100.558594 C 145.042969 99.171875 145.261719 97.847656 144.722656 96.835938 C 144.183594 95.820312 142.964844 95.265625 141.289062 95.265625 "/>
<g clip-path="url(#clip5)" clip-rule="nonzero">
<path style=" stroke:none;fill-rule:nonzero;fill:rgb(12.452698%,9.849548%,8.714294%);fill-opacity:1;" d="M 91.070312 41.875 C 91.234375 40.289062 91.402344 38.761719 91.574219 37.324219 C 93.984375 17.0625 97.011719 10.351562 98.597656 8.15625 C 99.089844 7.535156 99.390625 7.324219 99.789062 7.324219 C 100.015625 7.324219 100.292969 7.390625 100.683594 7.539062 C 104.347656 8.992188 107.046875 15.835938 107.917969 18.304688 L 107.898438 18.304688 L 107.992188 18.570312 C 108.285156 19.378906 108.246094 20.089844 107.875 20.679688 C 101.824219 24.488281 97.15625 29.914062 94 36.808594 C 93.308594 38.320312 92.515625 40.109375 91.65625 42.105469 C 91.523438 42.3125 91.269531 42.40625 91.152344 42.28125 C 91.085938 42.210938 91.058594 42.082031 91.070312 41.910156 C 91.074219 41.894531 91.074219 41.878906 91.070312 41.875 Z M 156 141.609375 C 150.644531 148.5625 142.445312 152.089844 131.632812 152.089844 C 122.386719 152.089844 113.71875 147.984375 107.84375 140.824219 C 107.011719 139.902344 106.046875 139.488281 104.726562 139.488281 C 103.417969 139.488281 101.820312 139.898438 99.796875 140.417969 L 99.578125 140.476562 C 96.519531 141.261719 93.410156 141.660156 90.34375 141.660156 C 83.914062 141.660156 77.851562 139.917969 72.804688 136.621094 C 65.402344 131.789062 60.570312 124.105469 59.199219 114.984375 C 56.558594 97.460938 63.34375 86.332031 69.5 80.082031 C 76.796875 72.671875 85.945312 69.359375 91.777344 69.359375 C 91.871094 69.359375 91.960938 69.359375 92.054688 69.359375 C 93.734375 69.40625 93.851562 68.714844 94.019531 67.832031 L 94.539062 64.046875 C 94.679688 63.371094 94.632812 62.933594 94.382812 62.625 C 94.144531 62.332031 93.738281 62.191406 93.132812 62.191406 L 93.0625 62.191406 C 92.820312 62.175781 92.570312 62.171875 92.320312 62.167969 L 92.289062 62.167969 C 92.101562 62.140625 91.96875 62.066406 91.886719 61.933594 C 91.671875 61.59375 91.738281 60.890625 92.070312 59.851562 C 94.511719 53.824219 97.960938 45.457031 100.546875 39.804688 C 105.957031 27.980469 116.519531 21.734375 131.085938 21.734375 C 146.683594 21.734375 158.890625 28.460938 163.738281 39.730469 C 167.660156 48.847656 173.855469 65.261719 175.058594 68.460938 L 175.078125 68.507812 C 175.589844 69.804688 175.820312 70.394531 177.253906 71.199219 C 186.089844 77.566406 191.636719 93.664062 190.160156 108.632812 C 189.035156 120.019531 185.144531 128.503906 178.601562 133.847656 C 172.183594 139.082031 164.863281 139.867188 161.070312 139.867188 C 160.882812 139.867188 160.695312 139.863281 160.511719 139.863281 C 157.945312 139.78125 157.453125 139.875 156 141.609375 Z M 156.285156 18.304688 C 157.15625 15.835938 159.855469 8.992188 163.519531 7.542969 C 163.910156 7.390625 164.1875 7.324219 164.414062 7.324219 C 164.8125 7.324219 165.113281 7.535156 165.601562 8.152344 C 167.191406 10.351562 170.21875 17.0625 172.628906 37.324219 C 172.796875 38.765625 172.96875 40.292969 173.128906 41.863281 L 173.128906 41.902344 L 173.132812 41.910156 C 173.144531 42.082031 173.117188 42.210938 173.050781 42.285156 C 172.933594 42.40625 172.65625 42.347656 172.511719 42.058594 C 171.707031 40.078125 170.980469 38.335938 170.355469 36.886719 C 167.683594 30.675781 163.355469 25.578125 157.511719 21.742188 C 157.429688 21.679688 157.34375 21.617188 157.242188 21.550781 C 156.101562 20.832031 155.753906 19.828125 156.210938 18.570312 L 156.289062 18.304688 Z M 183.53125 67.019531 C 182.710938 66.195312 182.171875 64.75 181.9375 62.734375 C 181.652344 57.089844 180.964844 45.984375 179.601562 35.023438 C 176.558594 10.527344 172.152344 0.0742188 164.867188 0.0742188 C 160.566406 0.0742188 154.492188 2.617188 149.929688 14.710938 L 149.894531 14.789062 C 149.667969 15.316406 148.429688 16.640625 146.839844 16.640625 C 146.621094 16.640625 146.398438 16.613281 146.183594 16.566406 C 146.078125 16.539062 145.980469 16.519531 145.90625 16.507812 C 141.296875 15.195312 136.3125 14.53125 131.085938 14.53125 C 126 14.53125 121.203125 15.222656 116.828125 16.585938 C 115.476562 16.335938 114.492188 15.21875 114.308594 14.789062 L 114.28125 14.730469 C 109.71875 2.617188 103.636719 0.0742188 99.335938 0.0742188 C 92.050781 0.0742188 87.644531 10.527344 84.601562 35.023438 C 83.484375 44.027344 82.824219 53.105469 82.46875 59.113281 C 82.296875 60.222656 81.59375 63.914062 79.695312 64.753906 C 79.628906 64.78125 79.570312 64.8125 79.527344 64.832031 C 73.980469 67.117188 68.597656 70.738281 64.371094 75.03125 C 54.039062 85.515625 49.671875 100.089844 52.078125 116.058594 C 53.761719 127.234375 59.722656 136.679688 68.867188 142.652344 C 75.136719 146.746094 82.566406 148.910156 90.351562 148.910156 C 93.769531 148.910156 97.207031 148.488281 100.558594 147.65625 C 102.488281 147.332031 104.132812 147.714844 105.398438 148.792969 C 105.433594 148.816406 105.464844 148.84375 105.496094 148.867188 L 105.53125 148.894531 C 112.582031 155.597656 121.851562 159.289062 131.632812 159.289062 C 143.691406 159.289062 153.121094 155.636719 159.671875 148.429688 C 160.695312 147.25 161.480469 147.042969 162.742188 147.042969 C 162.875 147.042969 163.007812 147.042969 163.160156 147.046875 C 174.375 146.65625 182.40625 140.269531 187.167969 134.980469 C 192.769531 128.753906 196.285156 119.890625 197.328125 109.339844 C 198.960938 92.777344 193.414062 75.765625 183.53125 67.019531 "/>
</g>
</g>
</svg>
