<?xml version="1.0" encoding="UTF-8" standalone="no"?>
<svg
   xmlns:dc="http://purl.org/dc/elements/1.1/"
   xmlns:cc="http://creativecommons.org/ns#"
   xmlns:rdf="http://www.w3.org/1999/02/22-rdf-syntax-ns#"
   xmlns:svg="http://www.w3.org/2000/svg"
   xmlns="http://www.w3.org/2000/svg"
   id="svg103"
   version="1.2"
   viewBox="0 0 364.2 140.08"
   height="140.08pt"
   width="364.2pt">
  <metadata
     id="metadata107">
    <rdf:RDF>
      <cc:Work
         rdf:about="">
        <dc:format>image/svg+xml</dc:format>
        <dc:type
           rdf:resource="http://purl.org/dc/dcmitype/StillImage" />
        <dc:title></dc:title>
      </cc:Work>
    </rdf:RDF>
  </metadata>
  <defs
     id="defs8">
    <clipPath
       id="clip1">
      <path
         id="path2"
         d="M 358 105 L 364.199219 105 L 364.199219 115 L 358 115 Z M 358 105 " />
    </clipPath>
    <clipPath
       id="clip2">
      <path
         id="path5"
         d="M 0 0 L 87 0 L 87 140.078125 L 0 140.078125 Z M 0 0 " />
    </clipPath>
  </defs>
  <g
     id="surface599">
    <path
       id="path10"
       d="M 109.695312 48.792969 L 121.214844 48.792969 L 121.214844 65.816406 L 133.949219 65.816406 L 133.949219 48.792969 L 145.53125 48.792969 L 145.53125 93.589844 L 133.949219 93.589844 L 133.949219 76.3125 L 121.214844 76.3125 L 121.214844 93.589844 L 109.695312 93.589844 L 109.695312 48.792969 "
       style=" stroke:none;fill-rule:nonzero;fill:rgb(12.452698%,9.849548%,8.714294%);fill-opacity:1;" />
    <path
       id="path12"
       d="M 152.128906 48.792969 L 182.972656 48.792969 L 182.972656 58.90625 L 163.519531 58.90625 L 163.519531 66.265625 L 181.054688 66.265625 L 181.054688 75.800781 L 163.519531 75.800781 L 163.519531 83.480469 L 183.230469 83.480469 L 183.230469 93.589844 L 152.128906 93.589844 L 152.128906 48.792969 "
       style=" stroke:none;fill-rule:nonzero;fill:rgb(12.452698%,9.849548%,8.714294%);fill-opacity:1;" />
    <path
       id="path14"
       d="M 211.132812 76.3125 L 206.972656 63.195312 L 202.8125 76.3125 Z M 201.277344 48.539062 L 212.925781 48.539062 L 228.730469 93.589844 L 216.636719 93.589844 L 214.011719 85.527344 L 199.933594 85.527344 L 197.371094 93.589844 L 185.535156 93.589844 L 201.277344 48.539062 "
       style=" stroke:none;fill-rule:nonzero;fill:rgb(12.452698%,9.849548%,8.714294%);fill-opacity:1;" />
    <path
       id="path16"
       d="M 236.542969 59.160156 L 225.472656 59.160156 L 225.472656 48.792969 L 259.132812 48.792969 L 259.132812 59.160156 L 248.0625 59.160156 L 248.0625 93.589844 L 236.542969 93.589844 L 236.542969 59.160156 "
       style=" stroke:none;fill-rule:nonzero;fill:rgb(12.452698%,9.849548%,8.714294%);fill-opacity:1;" />
    <path
       id="path18"
       d="M 112.996094 109.511719 C 112.996094 108.660156 112.6875 108.203125 112.113281 108.203125 C 110.660156 108.203125 109.699219 110.914062 109.699219 112.238281 C 109.699219 113.199219 110.042969 113.691406 110.644531 113.691406 C 111.96875 113.691406 112.996094 110.832031 112.996094 109.511719 Z M 114.253906 112.320312 C 114.121094 112.742188 114.074219 113.039062 114.074219 113.25 C 114.074219 113.527344 114.203125 113.675781 114.449219 113.675781 C 114.808594 113.675781 115.167969 113.121094 115.542969 112.023438 L 116.328125 112.269531 C 115.691406 114.261719 114.808594 114.996094 113.8125 114.996094 C 113.046875 114.996094 112.472656 114.507812 112.472656 113.558594 C 112.472656 113.445312 112.472656 113.363281 112.492188 113.199219 L 112.375 113.152344 C 111.757812 114.375 110.824219 114.996094 109.894531 114.996094 C 108.492188 114.996094 107.722656 113.835938 107.722656 112.402344 C 107.722656 110.734375 108.394531 109.25 109.273438 108.386719 C 110.042969 107.601562 110.90625 107.144531 111.820312 107.144531 C 112.734375 107.144531 113.257812 107.78125 113.40625 108.515625 L 113.730469 107.257812 L 115.59375 107.257812 L 114.253906 112.320312 "
       style=" stroke:none;fill-rule:nonzero;fill:rgb(92.871094%,13.111877%,17.172241%);fill-opacity:1;" />
    <path
       id="path20"
       d="M 124.507812 113.675781 C 124.847656 113.675781 125.191406 113.152344 125.632812 112.023438 L 126.398438 112.269531 C 125.746094 114.246094 124.832031 114.996094 123.902344 114.996094 C 123.019531 114.996094 122.449219 114.425781 122.449219 113.476562 C 122.449219 111.847656 123.527344 110.230469 123.527344 109.117188 C 123.527344 108.742188 123.363281 108.582031 123.085938 108.582031 C 122.335938 108.582031 120.929688 109.820312 119.625 114.832031 L 117.664062 114.832031 L 119.070312 109.542969 C 119.3125 108.613281 119.265625 108.351562 118.972656 108.351562 C 118.597656 108.351562 118.171875 109.054688 117.699219 110.066406 L 116.929688 109.738281 C 117.632812 108.105469 118.449219 107.160156 119.542969 107.160156 C 120.246094 107.160156 120.734375 107.664062 120.734375 108.679688 C 120.734375 109.152344 120.636719 109.738281 120.390625 110.492188 L 120.507812 110.539062 C 121.585938 108.238281 122.792969 107.144531 123.949219 107.144531 C 124.867188 107.144531 125.4375 107.863281 125.4375 108.84375 C 125.4375 110.230469 124.230469 112.320312 124.230469 113.316406 C 124.230469 113.558594 124.324219 113.675781 124.507812 113.675781 "
       style=" stroke:none;fill-rule:nonzero;fill:rgb(92.871094%,13.111877%,17.172241%);fill-opacity:1;" />
    <path
       id="path22"
       d="M 132.652344 111.09375 C 132.652344 112.988281 133.582031 113.902344 135.117188 113.902344 C 137.777344 113.902344 138.855469 109.933594 138.855469 107.828125 C 138.855469 105.933594 137.910156 105.019531 136.390625 105.019531 C 133.714844 105.019531 132.652344 108.988281 132.652344 111.09375 Z M 136.472656 103.828125 C 139.148438 103.828125 141.027344 105.738281 141.027344 108.546875 C 141.027344 111.699219 138.660156 115.09375 135.035156 115.09375 C 132.359375 115.09375 130.464844 113.183594 130.464844 110.375 C 130.464844 107.226562 132.832031 103.828125 136.472656 103.828125 "
       style=" stroke:none;fill-rule:nonzero;fill:rgb(92.871094%,13.111877%,17.172241%);fill-opacity:1;" />
    <path
       id="path24"
       d="M 144.878906 112.484375 C 144.878906 113.28125 145.222656 113.835938 145.941406 113.835938 C 147.394531 113.835938 148.210938 111.09375 148.210938 109.804688 C 148.210938 108.890625 147.914062 108.417969 147.3125 108.417969 C 146.007812 108.417969 144.878906 111.046875 144.878906 112.484375 Z M 143.554688 108.5 C 143.179688 108.5 142.886719 108.972656 142.363281 110.066406 L 141.597656 109.738281 C 142.382812 107.945312 143.148438 107.160156 144.175781 107.160156 C 144.910156 107.160156 145.402344 107.699219 145.402344 108.628906 C 145.402344 108.742188 145.386719 108.890625 145.367188 109.039062 L 145.5 109.085938 C 146.121094 107.796875 147.117188 107.144531 148.015625 107.144531 C 149.386719 107.144531 150.167969 108.269531 150.167969 109.789062 C 150.167969 112.417969 148.355469 114.851562 146.347656 114.851562 C 145.484375 114.851562 144.796875 114.410156 144.488281 113.757812 L 143.835938 116.1875 L 145.367188 116.1875 L 145.042969 117.398438 L 140.519531 117.398438 L 140.847656 116.1875 L 141.957031 116.1875 L 143.6875 109.722656 C 143.933594 108.808594 143.851562 108.5 143.554688 108.5 "
       style=" stroke:none;fill-rule:nonzero;fill:rgb(92.871094%,13.111877%,17.172241%);fill-opacity:1;" />
    <path
       id="path26"
       d="M 153.203125 110.996094 C 155.472656 110.75 156.308594 109.871094 156.308594 108.859375 C 156.308594 108.402344 156.046875 108.042969 155.554688 108.042969 C 154.414062 108.042969 153.546875 109.59375 153.203125 110.996094 Z M 153.058594 111.765625 C 153.039062 111.894531 153.039062 112.023438 153.039062 112.140625 C 153.039062 113.496094 153.742188 113.917969 154.558594 113.917969 C 155.359375 113.917969 156.160156 113.382812 156.847656 112.417969 L 157.53125 112.90625 C 156.699219 114.101562 155.6875 114.996094 153.957031 114.996094 C 152.273438 114.996094 151.097656 113.820312 151.097656 112.023438 C 151.097656 109.511719 153.269531 107.144531 155.832031 107.144531 C 157.238281 107.144531 158.019531 107.847656 158.019531 108.84375 C 158.019531 110.3125 156.488281 111.566406 153.058594 111.765625 "
       style=" stroke:none;fill-rule:nonzero;fill:rgb(92.871094%,13.111877%,17.172241%);fill-opacity:1;" />
    <path
       id="path28"
       d="M 166.429688 113.675781 C 166.769531 113.675781 167.113281 113.152344 167.554688 112.023438 L 168.324219 112.269531 C 167.667969 114.246094 166.753906 114.996094 165.824219 114.996094 C 164.941406 114.996094 164.371094 114.425781 164.371094 113.476562 C 164.371094 111.847656 165.449219 110.230469 165.449219 109.117188 C 165.449219 108.742188 165.285156 108.582031 165.007812 108.582031 C 164.257812 108.582031 162.851562 109.820312 161.546875 114.832031 L 159.585938 114.832031 L 160.992188 109.542969 C 161.238281 108.613281 161.1875 108.351562 160.894531 108.351562 C 160.519531 108.351562 160.09375 109.054688 159.621094 110.066406 L 158.851562 109.738281 C 159.554688 108.105469 160.371094 107.160156 161.464844 107.160156 C 162.167969 107.160156 162.65625 107.664062 162.65625 108.679688 C 162.65625 109.152344 162.558594 109.738281 162.3125 110.492188 L 162.429688 110.539062 C 163.507812 108.238281 164.714844 107.144531 165.871094 107.144531 C 166.785156 107.144531 167.359375 107.863281 167.359375 108.84375 C 167.359375 110.230469 166.152344 112.320312 166.152344 113.316406 C 166.152344 113.558594 166.246094 113.675781 166.429688 113.675781 "
       style=" stroke:none;fill-rule:nonzero;fill:rgb(92.871094%,13.111877%,17.172241%);fill-opacity:1;" />
    <path
       id="path30"
       d="M 170.019531 111.015625 L 171.179688 111.015625 C 171.488281 112.972656 172.632812 113.933594 174.066406 113.933594 C 175.359375 113.933594 176.109375 113.121094 176.109375 112.269531 C 176.109375 111.324219 175.03125 110.882812 173.871094 110.34375 C 172.515625 109.738281 171.03125 109.019531 171.03125 107.289062 C 171.03125 105.460938 172.679688 103.828125 174.851562 103.828125 C 176.011719 103.828125 177.089844 104.304688 177.628906 105.070312 L 178.296875 103.878906 L 179.519531 103.878906 L 178.558594 107.746094 L 177.414062 107.746094 C 177.070312 105.722656 176.253906 104.972656 174.851562 104.972656 C 173.789062 104.972656 173.039062 105.738281 173.039062 106.589844 C 173.039062 107.617188 174.148438 108.058594 175.324219 108.582031 C 176.664062 109.152344 178.101562 109.835938 178.101562 111.554688 C 178.101562 113.558594 176.320312 115.09375 174.085938 115.09375 C 172.664062 115.09375 171.601562 114.574219 170.980469 113.789062 L 170.265625 115.046875 L 169.039062 115.046875 L 170.019531 111.015625 "
       style=" stroke:none;fill-rule:nonzero;fill:rgb(92.871094%,13.111877%,17.172241%);fill-opacity:1;" />
    <path
       id="path32"
       d="M 183.453125 108.480469 L 182.476562 112.058594 C 182.359375 112.46875 182.277344 112.84375 182.277344 113.039062 C 182.277344 113.476562 182.507812 113.625 182.851562 113.625 C 183.4375 113.625 183.929688 112.90625 184.386719 111.863281 L 185.167969 112.125 C 184.367188 114.441406 183.113281 114.996094 182.230469 114.996094 C 181.152344 114.996094 180.386719 114.457031 180.386719 113.347656 C 180.386719 112.875 180.566406 112.1875 180.679688 111.730469 L 181.558594 108.480469 L 180.121094 108.480469 L 180.386719 107.488281 L 181.820312 107.488281 L 182.359375 105.527344 L 184.304688 105.316406 L 183.714844 107.488281 L 186.035156 107.488281 L 185.773438 108.480469 L 183.453125 108.480469 "
       style=" stroke:none;fill-rule:nonzero;fill:rgb(92.871094%,13.111877%,17.172241%);fill-opacity:1;" />
    <path
       id="path34"
       d="M 191.714844 109.511719 C 191.714844 108.660156 191.40625 108.203125 190.832031 108.203125 C 189.378906 108.203125 188.417969 110.914062 188.417969 112.238281 C 188.417969 113.199219 188.761719 113.691406 189.363281 113.691406 C 190.6875 113.691406 191.714844 110.832031 191.714844 109.511719 Z M 192.972656 112.320312 C 192.839844 112.742188 192.792969 113.039062 192.792969 113.25 C 192.792969 113.527344 192.921875 113.675781 193.167969 113.675781 C 193.527344 113.675781 193.886719 113.121094 194.261719 112.023438 L 195.046875 112.269531 C 194.410156 114.261719 193.527344 114.996094 192.53125 114.996094 C 191.765625 114.996094 191.191406 114.507812 191.191406 113.558594 C 191.191406 113.445312 191.191406 113.363281 191.207031 113.199219 L 191.09375 113.152344 C 190.472656 114.375 189.542969 114.996094 188.613281 114.996094 C 187.207031 114.996094 186.441406 113.835938 186.441406 112.402344 C 186.441406 110.734375 187.109375 109.25 187.992188 108.386719 C 188.761719 107.601562 189.625 107.144531 190.539062 107.144531 C 191.453125 107.144531 191.976562 107.78125 192.121094 108.515625 L 192.449219 107.257812 L 194.3125 107.257812 L 192.972656 112.320312 "
       style=" stroke:none;fill-rule:nonzero;fill:rgb(92.871094%,13.111877%,17.172241%);fill-opacity:1;" />
    <path
       id="path36"
       d="M 202.523438 109.070312 C 202.523438 109.773438 202.082031 110.476562 201.378906 110.476562 C 200.789062 110.476562 200.414062 110.082031 200.414062 109.59375 C 200.414062 109.136719 200.695312 108.761719 201.085938 108.480469 C 200.953125 108.253906 200.675781 108.074219 200.1875 108.074219 C 198.554688 108.074219 197.589844 110.570312 197.589844 111.992188 C 197.589844 113.398438 198.34375 113.835938 199.078125 113.835938 C 199.828125 113.835938 200.546875 113.300781 201.199219 112.285156 L 201.902344 112.761719 C 201.199219 113.984375 200.238281 114.996094 198.636719 114.996094 C 196.839844 114.996094 195.632812 113.773438 195.632812 111.992188 C 195.632812 109.445312 197.820312 107.144531 200.15625 107.144531 C 201.527344 107.144531 202.523438 107.910156 202.523438 109.070312 "
       style=" stroke:none;fill-rule:nonzero;fill:rgb(92.871094%,13.111877%,17.172241%);fill-opacity:1;" />
    <path
       id="path38"
       d="M 209.445312 113.675781 C 209.804688 113.675781 210.113281 113.152344 210.535156 112.023438 L 211.304688 112.269531 C 210.683594 114.246094 209.835938 114.996094 208.890625 114.996094 C 207.972656 114.996094 207.371094 114.394531 207.371094 113.332031 C 207.371094 112.875 207.550781 112.222656 207.550781 111.863281 C 207.550781 111.257812 207.289062 111.109375 206.097656 111.109375 L 206.0625 111.109375 L 205.066406 114.832031 L 203.222656 114.832031 L 205.867188 104.859375 L 204.511719 104.859375 L 204.839844 103.585938 L 208.089844 103.585938 L 206.261719 110.375 L 206.339844 110.375 C 207.207031 110.375 207.566406 109.886719 208.285156 108.695312 C 208.824219 107.8125 209.363281 107.144531 210.324219 107.144531 C 211.109375 107.144531 211.535156 107.632812 211.535156 108.335938 C 211.535156 109.019531 211.09375 109.707031 210.421875 109.707031 C 209.769531 109.707031 209.425781 109.136719 209.65625 108.46875 C 209.425781 108.515625 209.183594 108.792969 208.808594 109.414062 C 208.480469 110.019531 208.21875 110.359375 207.730469 110.621094 C 208.890625 110.71875 209.265625 111.226562 209.265625 111.992188 C 209.265625 112.46875 209.132812 112.941406 209.132812 113.234375 C 209.132812 113.558594 209.265625 113.675781 209.445312 113.675781 "
       style=" stroke:none;fill-rule:nonzero;fill:rgb(92.871094%,13.111877%,17.172241%);fill-opacity:1;" />
    <path
       id="path40"
       d="M 218.371094 110.539062 C 218.371094 107.257812 220.789062 103.828125 224.382812 103.828125 C 225.734375 103.828125 226.746094 104.320312 227.304688 105.152344 L 227.972656 103.878906 L 229.230469 103.878906 L 228.183594 108.125 L 226.960938 108.125 C 226.796875 105.773438 225.769531 105.019531 224.445312 105.019531 C 221.554688 105.019531 220.5625 108.90625 220.5625 110.703125 C 220.5625 112.875 221.671875 113.789062 223.089844 113.789062 C 224.820312 113.789062 225.835938 112.484375 226.652344 110.558594 L 227.808594 110.964844 C 226.992188 113.25 225.476562 115.09375 222.863281 115.09375 C 219.859375 115.09375 218.371094 113.183594 218.371094 110.539062 "
       style=" stroke:none;fill-rule:nonzero;fill:rgb(92.871094%,13.111877%,17.172241%);fill-opacity:1;" />
    <path
       id="path42"
       d="M 233.195312 108.042969 C 231.679688 108.042969 230.8125 111.015625 230.8125 112.597656 C 230.8125 113.644531 231.253906 114.082031 231.953125 114.082031 C 233.472656 114.082031 234.339844 111.109375 234.339844 109.527344 C 234.339844 108.480469 233.898438 108.042969 233.195312 108.042969 Z M 236.28125 110.292969 C 236.28125 112.84375 234.242188 114.996094 231.972656 114.996094 C 230.09375 114.996094 228.867188 113.675781 228.867188 111.828125 C 228.867188 109.28125 230.910156 107.144531 233.179688 107.144531 C 235.058594 107.144531 236.28125 108.449219 236.28125 110.292969 "
       style=" stroke:none;fill-rule:nonzero;fill:rgb(92.871094%,13.111877%,17.172241%);fill-opacity:1;" />
    <path
       id="path44"
       d="M 246.894531 113.476562 C 246.894531 111.847656 247.972656 110.230469 247.972656 109.117188 C 247.972656 108.742188 247.808594 108.582031 247.53125 108.582031 C 246.8125 108.582031 245.390625 109.820312 244.085938 114.832031 L 242.160156 114.832031 L 243.300781 110.523438 C 243.449219 109.984375 243.53125 109.59375 243.53125 109.28125 C 243.53125 108.890625 243.398438 108.582031 243.039062 108.582031 C 242.289062 108.582031 240.886719 109.820312 239.578125 114.832031 L 237.617188 114.832031 L 239.023438 109.542969 C 239.269531 108.613281 239.21875 108.351562 238.925781 108.351562 C 238.550781 108.351562 238.125 109.054688 237.652344 110.066406 L 236.886719 109.738281 C 237.585938 108.105469 238.402344 107.160156 239.496094 107.160156 C 240.199219 107.160156 240.6875 107.664062 240.6875 108.679688 C 240.6875 109.152344 240.589844 109.738281 240.347656 110.492188 L 240.460938 110.539062 C 241.539062 108.238281 242.746094 107.144531 243.855469 107.144531 C 244.753906 107.144531 245.226562 107.746094 245.226562 108.726562 C 245.226562 109.183594 245.097656 109.738281 244.851562 110.492188 L 244.96875 110.539062 C 246.042969 108.238281 247.253906 107.144531 248.410156 107.144531 C 249.308594 107.144531 249.882812 107.863281 249.882812 108.84375 C 249.882812 110.230469 248.671875 112.320312 248.671875 113.316406 C 248.671875 113.558594 248.769531 113.675781 248.949219 113.675781 C 249.292969 113.675781 249.636719 113.152344 250.078125 112.023438 L 250.84375 112.269531 C 250.191406 114.246094 249.277344 114.996094 248.347656 114.996094 C 247.464844 114.996094 246.894531 114.425781 246.894531 113.476562 "
       style=" stroke:none;fill-rule:nonzero;fill:rgb(92.871094%,13.111877%,17.172241%);fill-opacity:1;" />
    <path
       id="path46"
       d="M 261.210938 113.476562 C 261.210938 111.847656 262.289062 110.230469 262.289062 109.117188 C 262.289062 108.742188 262.125 108.582031 261.847656 108.582031 C 261.128906 108.582031 259.707031 109.820312 258.402344 114.832031 L 256.476562 114.832031 L 257.617188 110.523438 C 257.765625 109.984375 257.847656 109.59375 257.847656 109.28125 C 257.847656 108.890625 257.714844 108.582031 257.355469 108.582031 C 256.605469 108.582031 255.203125 109.820312 253.894531 114.832031 L 251.9375 114.832031 L 253.339844 109.542969 C 253.585938 108.613281 253.535156 108.351562 253.242188 108.351562 C 252.867188 108.351562 252.441406 109.054688 251.96875 110.066406 L 251.199219 109.738281 C 251.902344 108.105469 252.71875 107.160156 253.8125 107.160156 C 254.515625 107.160156 255.007812 107.664062 255.007812 108.679688 C 255.007812 109.152344 254.910156 109.738281 254.664062 110.492188 L 254.777344 110.539062 C 255.855469 108.238281 257.0625 107.144531 258.171875 107.144531 C 259.070312 107.144531 259.546875 107.746094 259.546875 108.726562 C 259.546875 109.183594 259.414062 109.738281 259.167969 110.492188 L 259.285156 110.539062 C 260.363281 108.238281 261.570312 107.144531 262.730469 107.144531 C 263.625 107.144531 264.199219 107.863281 264.199219 108.84375 C 264.199219 110.230469 262.988281 112.320312 262.988281 113.316406 C 262.988281 113.558594 263.089844 113.675781 263.269531 113.675781 C 263.609375 113.675781 263.953125 113.152344 264.394531 112.023438 L 265.160156 112.269531 C 264.507812 114.246094 263.59375 114.996094 262.664062 114.996094 C 261.78125 114.996094 261.210938 114.425781 261.210938 113.476562 "
       style=" stroke:none;fill-rule:nonzero;fill:rgb(92.871094%,13.111877%,17.172241%);fill-opacity:1;" />
    <path
       id="path48"
       d="M 271.25 113.460938 C 271.25 113.054688 271.347656 112.433594 271.609375 111.601562 L 271.496094 111.554688 C 270.417969 113.917969 269.273438 114.996094 268.097656 114.996094 C 267.199219 114.996094 266.613281 114.292969 266.613281 113.28125 C 266.613281 111.910156 267.773438 109.738281 267.773438 108.808594 C 267.773438 108.582031 267.675781 108.46875 267.527344 108.46875 C 267.183594 108.46875 266.90625 108.824219 266.320312 110.050781 L 265.550781 109.722656 C 266.222656 108.105469 267.085938 107.144531 268.214844 107.144531 C 269.078125 107.144531 269.585938 107.683594 269.585938 108.628906 C 269.585938 110.148438 268.507812 111.878906 268.507812 112.925781 C 268.507812 113.382812 268.6875 113.558594 268.964844 113.558594 C 269.699219 113.558594 271.054688 112.351562 272.394531 107.257812 L 274.351562 107.257812 L 273.011719 112.320312 C 272.882812 112.761719 272.832031 113.039062 272.832031 113.25 C 272.832031 113.527344 272.980469 113.675781 273.210938 113.675781 C 273.585938 113.675781 273.929688 113.121094 274.304688 112.023438 L 275.085938 112.269531 C 274.449219 114.261719 273.570312 114.996094 272.636719 114.996094 C 271.789062 114.996094 271.25 114.523438 271.25 113.460938 "
       style=" stroke:none;fill-rule:nonzero;fill:rgb(92.871094%,13.111877%,17.172241%);fill-opacity:1;" />
    <path
       id="path50"
       d="M 282.890625 113.675781 C 283.234375 113.675781 283.574219 113.152344 284.015625 112.023438 L 284.785156 112.269531 C 284.132812 114.246094 283.214844 114.996094 282.285156 114.996094 C 281.40625 114.996094 280.832031 114.425781 280.832031 113.476562 C 280.832031 111.847656 281.910156 110.230469 281.910156 109.117188 C 281.910156 108.742188 281.746094 108.582031 281.46875 108.582031 C 280.71875 108.582031 279.316406 109.820312 278.007812 114.832031 L 276.050781 114.832031 L 277.453125 109.542969 C 277.699219 108.613281 277.648438 108.351562 277.355469 108.351562 C 276.980469 108.351562 276.554688 109.054688 276.082031 110.066406 L 275.3125 109.738281 C 276.015625 108.105469 276.832031 107.160156 277.925781 107.160156 C 278.628906 107.160156 279.117188 107.664062 279.117188 108.679688 C 279.117188 109.152344 279.019531 109.738281 278.777344 110.492188 L 278.890625 110.539062 C 279.96875 108.238281 281.175781 107.144531 282.335938 107.144531 C 283.25 107.144531 283.820312 107.863281 283.820312 108.84375 C 283.820312 110.230469 282.613281 112.320312 282.613281 113.316406 C 282.613281 113.558594 282.710938 113.675781 282.890625 113.675781 "
       style=" stroke:none;fill-rule:nonzero;fill:rgb(92.871094%,13.111877%,17.172241%);fill-opacity:1;" />
    <path
       id="path52"
       d="M 288.898438 106 C 288.324219 106 287.882812 105.609375 287.882812 104.957031 C 287.882812 104.285156 288.390625 103.519531 289.257812 103.519531 C 289.875 103.519531 290.300781 103.910156 290.300781 104.5625 C 290.300781 105.21875 289.761719 106 288.898438 106 Z M 288.113281 113.28125 C 288.113281 113.558594 288.226562 113.675781 288.441406 113.675781 C 288.75 113.675781 289.109375 113.234375 289.597656 112.023438 L 290.367188 112.269531 C 289.730469 114.195312 288.816406 114.996094 287.769531 114.996094 C 286.921875 114.996094 286.300781 114.441406 286.300781 113.460938 C 286.300781 111.910156 287.65625 109.722656 287.65625 108.710938 C 287.65625 108.449219 287.558594 108.351562 287.410156 108.351562 C 286.953125 108.351562 286.546875 109.054688 286.089844 110.066406 L 285.304688 109.738281 C 286.007812 108.105469 286.871094 107.144531 287.984375 107.144531 C 288.832031 107.144531 289.433594 107.746094 289.433594 108.792969 C 289.433594 110.066406 288.113281 112.335938 288.113281 113.28125 "
       style=" stroke:none;fill-rule:nonzero;fill:rgb(92.871094%,13.111877%,17.172241%);fill-opacity:1;" />
    <path
       id="path54"
       d="M 294.660156 108.480469 L 293.679688 112.058594 C 293.566406 112.46875 293.484375 112.84375 293.484375 113.039062 C 293.484375 113.476562 293.714844 113.625 294.054688 113.625 C 294.644531 113.625 295.132812 112.90625 295.589844 111.863281 L 296.375 112.125 C 295.574219 114.441406 294.316406 114.996094 293.4375 114.996094 C 292.359375 114.996094 291.589844 114.457031 291.589844 113.347656 C 291.589844 112.875 291.769531 112.1875 291.882812 111.730469 L 292.765625 108.480469 L 291.328125 108.480469 L 291.589844 107.488281 L 293.027344 107.488281 L 293.566406 105.527344 L 295.507812 105.316406 L 294.921875 107.488281 L 297.238281 107.488281 L 296.980469 108.480469 L 294.660156 108.480469 "
       style=" stroke:none;fill-rule:nonzero;fill:rgb(92.871094%,13.111877%,17.172241%);fill-opacity:1;" />
    <path
       id="path56"
       d="M 301.089844 108.5625 C 301.089844 110.066406 300.144531 111.535156 300.144531 112.484375 C 300.144531 112.890625 300.324219 113.054688 300.683594 113.054688 C 301.550781 113.054688 302.707031 112.074219 303.949219 107.257812 L 305.777344 107.257812 L 304.277344 113.558594 C 303.574219 116.5625 301.925781 117.609375 299.882812 117.609375 C 298.742188 117.609375 297.367188 117.300781 297.367188 116.089844 C 297.367188 115.566406 297.761719 114.914062 298.496094 114.914062 C 299.148438 114.914062 299.476562 115.371094 299.441406 115.910156 C 299.425781 116.171875 299.28125 116.46875 299.117188 116.613281 C 299.3125 116.679688 299.558594 116.726562 299.867188 116.726562 C 301.140625 116.726562 302.007812 115.699219 302.5625 113.429688 L 302.886719 112.140625 L 302.789062 112.089844 C 301.84375 113.820312 300.828125 114.457031 299.882812 114.457031 C 298.804688 114.457031 298.265625 113.707031 298.265625 112.761719 C 298.265625 111.503906 299.3125 109.738281 299.3125 108.808594 C 299.3125 108.597656 299.214844 108.46875 299.066406 108.46875 C 298.660156 108.46875 298.265625 109.136719 297.824219 110.066406 L 297.058594 109.738281 C 297.777344 108.105469 298.675781 107.144531 299.753906 107.144531 C 300.585938 107.144531 301.089844 107.699219 301.089844 108.5625 "
       style=" stroke:none;fill-rule:nonzero;fill:rgb(92.871094%,13.111877%,17.172241%);fill-opacity:1;" />
    <path
       id="path58"
       d="M 314.445312 109.382812 C 316.535156 109.382812 317.269531 108.074219 317.269531 106.816406 C 317.269531 105.871094 316.699219 105.300781 315.082031 105.300781 L 314.378906 105.300781 L 313.367188 109.382812 Z M 312.308594 113.609375 L 314.085938 113.609375 L 313.808594 114.832031 L 308.324219 114.832031 L 308.601562 113.609375 L 310.25 113.609375 L 312.308594 105.316406 L 310.640625 105.316406 L 310.949219 104.089844 L 315.472656 104.089844 C 318.429688 104.089844 319.554688 105.300781 319.554688 106.832031 C 319.554688 108.46875 318.429688 110.539062 314.378906 110.539062 L 313.074219 110.539062 L 312.308594 113.609375 "
       style=" stroke:none;fill-rule:nonzero;fill:rgb(92.871094%,13.111877%,17.172241%);fill-opacity:1;" />
    <path
       id="path60"
       d="M 322.101562 109.542969 C 322.347656 108.613281 322.296875 108.351562 322.003906 108.351562 C 321.628906 108.351562 321.203125 109.054688 320.730469 110.066406 L 319.960938 109.738281 C 320.664062 108.105469 321.480469 107.160156 322.574219 107.160156 C 323.277344 107.160156 323.765625 107.664062 323.765625 108.679688 C 323.765625 109.152344 323.667969 109.722656 323.441406 110.441406 L 323.570312 110.492188 C 324.519531 108.335938 325.300781 107.144531 326.445312 107.144531 C 327.128906 107.144531 327.636719 107.617188 327.636719 108.386719 C 327.636719 109.199219 327.113281 109.855469 326.460938 109.855469 C 325.890625 109.855469 325.449219 109.476562 325.480469 108.792969 C 325.007812 108.988281 323.832031 110.375 322.65625 114.832031 L 320.699219 114.832031 L 322.101562 109.542969 "
       style=" stroke:none;fill-rule:nonzero;fill:rgb(92.871094%,13.111877%,17.172241%);fill-opacity:1;" />
    <path
       id="path62"
       d="M 332.304688 108.042969 C 330.785156 108.042969 329.921875 111.015625 329.921875 112.597656 C 329.921875 113.644531 330.363281 114.082031 331.0625 114.082031 C 332.582031 114.082031 333.449219 111.109375 333.449219 109.527344 C 333.449219 108.480469 333.007812 108.042969 332.304688 108.042969 Z M 335.390625 110.292969 C 335.390625 112.84375 333.351562 114.996094 331.078125 114.996094 C 329.203125 114.996094 327.976562 113.675781 327.976562 111.828125 C 327.976562 109.28125 330.019531 107.144531 332.289062 107.144531 C 334.164062 107.144531 335.390625 108.449219 335.390625 110.292969 "
       style=" stroke:none;fill-rule:nonzero;fill:rgb(92.871094%,13.111877%,17.172241%);fill-opacity:1;" />
    <path
       id="path64"
       d="M 340.402344 106 C 339.828125 106 339.390625 105.609375 339.390625 104.957031 C 339.390625 104.285156 339.910156 103.519531 340.761719 103.519531 C 341.382812 103.519531 341.804688 103.910156 341.804688 104.5625 C 341.804688 105.21875 341.265625 106 340.402344 106 Z M 340.710938 110.082031 L 339.683594 113.984375 C 338.996094 116.582031 337.722656 117.609375 336.222656 117.609375 C 335.078125 117.609375 334.589844 117.070312 334.589844 116.449219 C 334.589844 115.847656 335.03125 115.289062 335.664062 115.289062 C 336.222656 115.289062 336.515625 115.699219 336.515625 116.125 C 336.515625 116.46875 336.386719 116.742188 336.253906 116.90625 C 336.957031 116.925781 337.234375 116.5 337.839844 114.164062 L 338.914062 110.035156 C 339.015625 109.640625 339.160156 109.070312 339.160156 108.726562 C 339.160156 108.433594 339.03125 108.351562 338.882812 108.351562 C 338.492188 108.351562 338.066406 109.054688 337.59375 110.066406 L 336.824219 109.738281 C 337.527344 108.105469 338.378906 107.144531 339.519531 107.144531 C 340.351562 107.144531 340.941406 107.78125 340.941406 108.695312 C 340.941406 109.070312 340.859375 109.527344 340.710938 110.082031 "
       style=" stroke:none;fill-rule:nonzero;fill:rgb(92.871094%,13.111877%,17.172241%);fill-opacity:1;" />
    <path
       id="path66"
       d="M 344.386719 110.996094 C 346.65625 110.75 347.488281 109.871094 347.488281 108.859375 C 347.488281 108.402344 347.226562 108.042969 346.734375 108.042969 C 345.59375 108.042969 344.726562 109.59375 344.386719 110.996094 Z M 344.238281 111.765625 C 344.222656 111.894531 344.222656 112.023438 344.222656 112.140625 C 344.222656 113.496094 344.925781 113.917969 345.738281 113.917969 C 346.539062 113.917969 347.339844 113.382812 348.027344 112.417969 L 348.710938 112.90625 C 347.878906 114.101562 346.867188 114.996094 345.136719 114.996094 C 343.453125 114.996094 342.277344 113.820312 342.277344 112.023438 C 342.277344 109.511719 344.449219 107.144531 347.015625 107.144531 C 348.417969 107.144531 349.199219 107.847656 349.199219 108.84375 C 349.199219 110.3125 347.664062 111.566406 344.238281 111.765625 "
       style=" stroke:none;fill-rule:nonzero;fill:rgb(92.871094%,13.111877%,17.172241%);fill-opacity:1;" />
    <path
       id="path68"
       d="M 357.070312 109.070312 C 357.070312 109.773438 356.628906 110.476562 355.925781 110.476562 C 355.339844 110.476562 354.964844 110.082031 354.964844 109.59375 C 354.964844 109.136719 355.242188 108.761719 355.632812 108.480469 C 355.503906 108.253906 355.226562 108.074219 354.734375 108.074219 C 353.101562 108.074219 352.140625 110.570312 352.140625 111.992188 C 352.140625 113.398438 352.890625 113.835938 353.625 113.835938 C 354.375 113.835938 355.09375 113.300781 355.746094 112.285156 L 356.449219 112.761719 C 355.746094 113.984375 354.785156 114.996094 353.183594 114.996094 C 351.386719 114.996094 350.179688 113.773438 350.179688 111.992188 C 350.179688 109.445312 352.367188 107.144531 354.703125 107.144531 C 356.074219 107.144531 357.070312 107.910156 357.070312 109.070312 "
       style=" stroke:none;fill-rule:nonzero;fill:rgb(92.871094%,13.111877%,17.172241%);fill-opacity:1;" />
    <g
       id="g72"
       clip-rule="nonzero"
       clip-path="url(#clip1)">
      <path
         id="path70"
         d="M 361.625 108.480469 L 360.644531 112.058594 C 360.53125 112.46875 360.449219 112.84375 360.449219 113.039062 C 360.449219 113.476562 360.675781 113.625 361.019531 113.625 C 361.609375 113.625 362.097656 112.90625 362.554688 111.863281 L 363.339844 112.125 C 362.539062 114.441406 361.28125 114.996094 360.398438 114.996094 C 359.320312 114.996094 358.554688 114.457031 358.554688 113.347656 C 358.554688 112.875 358.734375 112.1875 358.847656 111.730469 L 359.730469 108.480469 L 358.292969 108.480469 L 358.554688 107.488281 L 359.992188 107.488281 L 360.53125 105.527344 L 362.472656 105.316406 L 361.886719 107.488281 L 364.203125 107.488281 L 363.941406 108.480469 L 361.625 108.480469 "
         style=" stroke:none;fill-rule:nonzero;fill:rgb(92.871094%,13.111877%,17.172241%);fill-opacity:1;" />
    </g>
    <path
       id="path74"
       d="M 33.777344 108.023438 C 33.039062 108.023438 32.34375 107.734375 31.824219 107.210938 L 26.488281 101.875 C 23.746094 99.136719 22.460938 95.34375 22.960938 91.472656 C 23.304688 88.800781 24.632812 86.191406 26.699219 84.125 L 33.609375 77.210938 C 34.132812 76.6875 34.828125 76.402344 35.566406 76.402344 C 36.304688 76.402344 37 76.6875 37.519531 77.210938 L 47.59375 87.28125 C 48.113281 87.804688 48.402344 88.5 48.402344 89.238281 C 48.402344 89.976562 48.113281 90.671875 47.589844 91.195312 L 40.46875 98.304688 C 38.40625 100.375 37.027344 102.96875 36.484375 105.800781 C 36.234375 107.085938 35.097656 108.023438 33.777344 108.023438 "
       style=" stroke:none;fill-rule:nonzero;fill:rgb(100%,100%,100%);fill-opacity:1;" />
    <path
       id="path76"
       d="M 26.570312 60.980469 C 25.4375 60.980469 24.441406 60.3125 24.03125 59.273438 C 23.453125 57.8125 23.160156 56.273438 23.160156 54.691406 C 23.160156 51.378906 24.453125 48.261719 26.792969 45.921875 L 35.703125 37.019531 C 36.222656 36.5 36.914062 36.214844 37.648438 36.214844 C 38.96875 36.214844 40.101562 37.144531 40.347656 38.429688 C 40.679688 40.183594 41.335938 41.839844 42.285156 43.347656 C 42.988281 44.457031 42.839844 45.871094 41.921875 46.785156 L 28.527344 60.171875 C 28.003906 60.695312 27.308594 60.980469 26.570312 60.980469 "
       style=" stroke:none;fill-rule:nonzero;fill:rgb(94.515991%,29.447937%,14.942932%);fill-opacity:1;" />
    <path
       id="path78"
       d="M 35.566406 71.089844 C 34.828125 71.089844 34.132812 70.800781 33.609375 70.28125 L 29.484375 66.15625 C 28.40625 65.078125 28.40625 63.324219 29.484375 62.246094 L 43.117188 48.613281 C 43.640625 48.089844 44.335938 47.800781 45.074219 47.800781 C 45.8125 47.800781 46.507812 48.089844 47.027344 48.613281 L 51.152344 52.738281 C 52.230469 53.816406 52.230469 55.570312 51.152344 56.648438 L 37.519531 70.28125 C 36.996094 70.800781 36.304688 71.089844 35.566406 71.089844 "
       style=" stroke:none;fill-rule:nonzero;fill:rgb(92.871094%,13.111877%,17.172241%);fill-opacity:1;" />
    <path
       id="path80"
       d="M 51.066406 86.578125 C 50.328125 86.578125 49.632812 86.289062 49.109375 85.765625 L 39.039062 75.695312 C 38.515625 75.171875 38.226562 74.476562 38.226562 73.738281 C 38.226562 73 38.515625 72.304688 39.039062 71.785156 L 52.667969 58.164062 C 53.191406 57.640625 53.886719 57.351562 54.625 57.351562 C 55.363281 57.351562 56.058594 57.640625 56.578125 58.164062 L 60.652344 62.234375 L 60.703125 62.300781 C 62.535156 64.539062 63.5 67.253906 63.5 70.148438 C 63.5 73.449219 62.210938 76.5625 59.871094 78.914062 L 53.019531 85.765625 C 52.496094 86.289062 51.804688 86.578125 51.066406 86.578125 "
       style=" stroke:none;fill-rule:nonzero;fill:rgb(95.887756%,46.02356%,8.729553%);fill-opacity:1;" />
    <path
       id="path82"
       d="M 45.632812 41.925781 C 44.507812 41.925781 43.511719 41.261719 43.097656 40.226562 C 42.515625 38.765625 42.21875 37.222656 42.21875 35.632812 C 42.21875 32.882812 43.109375 30.269531 44.75 28.121094 L 44.714844 28.085938 L 45.742188 26.910156 C 48.78125 23.429688 50.457031 18.953125 50.457031 14.308594 C 50.457031 13.160156 51.320312 12.261719 52.421875 12.261719 C 53.03125 12.261719 53.605469 12.527344 54.132812 13.054688 L 56.171875 15.09375 C 60.957031 19.929688 60.933594 27.773438 56.121094 32.585938 L 47.589844 41.117188 C 47.070312 41.640625 46.375 41.925781 45.632812 41.925781 "
       style=" stroke:none;fill-rule:nonzero;fill:rgb(92.871094%,13.111877%,17.172241%);fill-opacity:1;" />
    <path
       id="path84"
       d="M 9.335938 83.726562 C 8.550781 83.726562 7.949219 83.273438 7.507812 82.882812 C 5.292969 80.898438 3.808594 77.351562 3.808594 74.046875 C 3.808594 70.734375 5.097656 67.617188 7.4375 65.273438 L 16.628906 56.085938 C 17.152344 55.5625 17.847656 55.273438 18.585938 55.273438 C 19.90625 55.273438 21.042969 56.207031 21.292969 57.492188 C 21.628906 59.234375 22.28125 60.882812 23.226562 62.390625 C 23.925781 63.503906 23.777344 64.921875 22.859375 65.839844 L 15.429688 73.265625 C 13.144531 75.554688 11.714844 78.457031 11.300781 81.667969 L 11.292969 81.71875 C 11.074219 83.628906 9.625 83.726562 9.335938 83.726562 "
       style=" stroke:none;fill-rule:nonzero;fill:rgb(95.887756%,46.02356%,8.729553%);fill-opacity:1;" />
    <path
       id="path86"
       d="M 60.59375 96.105469 C 59.855469 96.105469 59.160156 95.820312 58.640625 95.296875 L 54.527344 91.183594 C 54.003906 90.660156 53.714844 89.964844 53.714844 89.226562 C 53.714844 88.488281 54.003906 87.792969 54.523438 87.273438 L 61.375 80.425781 C 63.5625 78.234375 64.96875 75.484375 65.449219 72.460938 C 65.78125 70.359375 67.34375 70.25 67.652344 70.25 C 68.761719 70.25 69.613281 71.089844 70.226562 71.820312 C 74.210938 76.546875 73.839844 84.003906 69.398438 88.449219 L 62.546875 95.296875 C 62.027344 95.820312 61.332031 96.105469 60.59375 96.105469 "
       style=" stroke:none;fill-rule:nonzero;fill:rgb(95.954895%,72.164917%,4.994202%);fill-opacity:1;" />
    <path
       id="path88"
       d="M 43.675781 118.09375 C 43.253906 118.09375 42.621094 117.972656 42.011719 117.390625 C 39.691406 115.167969 38.394531 112.113281 38.359375 108.792969 C 38.324219 105.433594 39.644531 102.164062 41.988281 99.820312 L 49.097656 92.699219 C 49.621094 92.179688 50.316406 91.890625 51.054688 91.890625 C 51.792969 91.890625 52.488281 92.175781 53.007812 92.699219 L 57.121094 96.8125 C 57.644531 97.335938 57.933594 98.03125 57.933594 98.769531 C 57.933594 99.507812 57.644531 100.199219 57.121094 100.722656 L 50 107.847656 C 47.726562 110.121094 46.300781 112.988281 45.878906 116.140625 C 45.730469 117.253906 44.785156 118.09375 43.675781 118.09375 "
       style=" stroke:none;fill-rule:nonzero;fill:rgb(97.587585%,88.517761%,2.690125%);fill-opacity:1;" />
    <path
       id="path90"
       d="M 18.644531 93.0625 C 18.03125 93.0625 17.429688 92.804688 16.953125 92.332031 C 14.609375 90.015625 13.3125 86.914062 13.304688 83.601562 C 13.296875 80.265625 14.589844 77.132812 16.949219 74.78125 L 24.070312 67.660156 C 24.59375 67.136719 25.285156 66.851562 26.027344 66.851562 C 26.765625 66.851562 27.457031 67.136719 27.980469 67.660156 L 32.105469 71.785156 C 33.183594 72.863281 33.183594 74.617188 32.105469 75.695312 L 24.980469 82.816406 C 22.707031 85.089844 21.28125 87.960938 20.851562 91.117188 C 20.703125 92.226562 19.753906 93.0625 18.644531 93.0625 "
       style=" stroke:none;fill-rule:nonzero;fill:rgb(94.515991%,29.447937%,14.942932%);fill-opacity:1;" />
    <path
       id="path92"
       d="M 68.039062 107.707031 C 66.722656 107.707031 65.585938 106.777344 65.335938 105.492188 C 64.992188 103.734375 64.335938 102.078125 63.386719 100.570312 C 62.679688 99.457031 62.832031 98.035156 63.75 97.117188 L 70.914062 89.953125 C 73.191406 87.675781 74.617188 84.792969 75.03125 81.609375 C 75.167969 80.578125 76.09375 79.824219 77.238281 79.824219 C 77.90625 79.824219 78.535156 80.089844 78.960938 80.554688 C 81.15625 82.949219 82.417969 85.886719 82.511719 88.824219 C 82.578125 91 82.078125 93.160156 81.0625 95.074219 C 80.5 96.128906 79.78125 97.101562 78.917969 97.964844 L 69.996094 106.894531 C 69.472656 107.417969 68.777344 107.707031 68.039062 107.707031 "
       style=" stroke:none;fill-rule:nonzero;fill:rgb(95.887756%,46.02356%,8.729553%);fill-opacity:1;" />
    <path
       id="path94"
       d="M 53.140625 127.601562 C 52.546875 127.601562 51.96875 127.347656 51.511719 126.890625 C 46.691406 122.042969 46.691406 114.175781 51.515625 109.351562 L 58.058594 102.808594 C 58.765625 102.101562 59.496094 101.953125 59.988281 101.953125 C 61.375 101.953125 62.390625 103.09375 62.78125 104.21875 C 63.230469 105.523438 63.457031 106.890625 63.457031 108.285156 C 63.457031 111.597656 62.175781 114.703125 59.847656 117.042969 L 59.664062 117.230469 L 59.652344 117.234375 L 59.527344 117.367188 C 57.3125 119.570312 55.898438 122.375 55.4375 125.472656 C 55.257812 126.683594 54.269531 127.601562 53.140625 127.601562 "
       style=" stroke:none;fill-rule:nonzero;fill:rgb(95.887756%,46.02356%,8.729553%);fill-opacity:1;" />
    <path
       id="path96"
       d="M 54.652344 52 C 53.917969 52 53.230469 51.71875 52.707031 51.203125 L 48.558594 47.101562 C 48.03125 46.582031 47.742188 45.886719 47.738281 45.144531 C 47.734375 44.402344 48.023438 43.707031 48.546875 43.179688 L 57.628906 34.09375 C 59.832031 31.878906 61.246094 29.089844 61.710938 26.023438 C 61.894531 24.816406 62.890625 23.910156 64.023438 23.910156 C 64.414062 23.910156 64.996094 24.011719 65.574219 24.511719 C 67.835938 26.464844 69.296875 29.941406 69.296875 33.367188 C 69.296875 36.679688 68.003906 39.796875 65.664062 42.136719 L 56.609375 51.191406 C 56.085938 51.714844 55.390625 52 54.652344 52 "
       style=" stroke:none;fill-rule:nonzero;fill:rgb(92.871094%,13.111877%,17.172241%);fill-opacity:1;" />
    <g
       id="g100"
       clip-rule="nonzero"
       clip-path="url(#clip2)">
      <path
         id="path98"
         d="M 79.585938 94.289062 C 79.105469 95.195312 78.480469 96.039062 77.734375 96.785156 L 68.816406 105.714844 C 68.203125 106.328125 67.140625 106.023438 66.972656 105.175781 C 66.59375 103.21875 65.855469 101.355469 64.796875 99.679688 C 64.519531 99.238281 64.5625 98.667969 64.929688 98.296875 L 72.09375 91.132812 C 74.710938 88.519531 76.242188 85.242188 76.6875 81.828125 C 76.734375 81.464844 77.441406 81.371094 77.730469 81.683594 C 79.546875 83.667969 80.757812 86.183594 80.839844 88.875 C 80.902344 90.800781 80.460938 92.644531 79.585938 94.289062 Z M 61.367188 94.117188 C 60.941406 94.542969 60.246094 94.542969 59.820312 94.117188 L 55.707031 90.003906 C 55.277344 89.574219 55.277344 88.882812 55.707031 88.453125 L 62.554688 81.605469 C 65.003906 79.152344 66.566406 76.074219 67.097656 72.722656 C 67.175781 72.222656 67.449219 71.113281 68.953125 72.894531 C 72.332031 76.90625 72.140625 83.34375 68.21875 87.265625 Z M 58.664062 115.867188 L 58.644531 115.878906 L 58.347656 116.183594 C 55.800781 118.726562 54.28125 121.910156 53.789062 125.226562 C 53.71875 125.699219 53.21875 126.238281 52.695312 125.714844 C 48.5625 121.558594 48.511719 114.71875 52.695312 110.53125 L 59.238281 103.992188 C 60.167969 103.0625 60.976562 104.109375 61.203125 104.765625 C 61.585938 105.882812 61.789062 107.066406 61.789062 108.285156 C 61.789062 111.144531 60.679688 113.839844 58.664062 115.867188 Z M 44.226562 115.917969 C 44.171875 116.316406 43.683594 116.679688 43.167969 116.183594 C 38.984375 112.175781 38.984375 105.1875 43.167969 101.003906 L 50.277344 93.878906 C 50.707031 93.453125 51.402344 93.453125 51.828125 93.878906 L 55.941406 97.992188 C 56.371094 98.421875 56.371094 99.113281 55.941406 99.542969 L 48.820312 106.664062 C 46.28125 109.203125 44.691406 112.425781 44.226562 115.917969 Z M 34.84375 105.484375 C 34.679688 106.335938 33.617188 106.644531 33.003906 106.03125 L 27.667969 100.695312 C 25.308594 98.335938 24.183594 95.054688 24.617188 91.6875 C 24.929688 89.257812 26.148438 87.035156 27.878906 85.304688 L 34.789062 78.390625 C 35.21875 77.964844 35.914062 77.964844 36.339844 78.390625 L 46.410156 88.464844 C 46.839844 88.890625 46.839844 89.585938 46.410156 90.011719 L 39.289062 97.125 C 36.976562 99.445312 35.449219 102.339844 34.84375 105.484375 Z M 19.199219 90.894531 C 19.144531 91.292969 18.640625 91.648438 18.128906 91.144531 C 13.910156 86.980469 13.933594 80.148438 18.128906 75.964844 L 25.25 68.839844 C 25.679688 68.414062 26.371094 68.414062 26.800781 68.839844 L 30.925781 72.964844 C 31.351562 73.394531 31.351562 74.085938 30.925781 74.515625 L 23.800781 81.636719 C 21.265625 84.175781 19.671875 87.398438 19.199219 90.894531 Z M 9.644531 81.453125 C 9.597656 81.820312 9.589844 82.503906 8.621094 81.636719 C 6.800781 80.011719 5.476562 76.917969 5.476562 74.046875 C 5.476562 71.175781 6.59375 68.480469 8.621094 66.457031 L 17.8125 57.265625 C 18.421875 56.652344 19.488281 56.957031 19.652344 57.808594 C 20.027344 59.753906 20.761719 61.605469 21.816406 63.277344 C 22.089844 63.71875 22.046875 64.289062 21.679688 64.65625 L 14.25 72.085938 C 11.628906 74.707031 10.089844 78.027344 9.644531 81.453125 Z M 27.972656 47.101562 L 36.882812 38.203125 C 37.488281 37.597656 38.542969 37.898438 38.707031 38.742188 C 39.078125 40.695312 39.8125 42.554688 40.875 44.238281 C 41.152344 44.675781 41.105469 45.238281 40.742188 45.605469 L 27.34375 58.992188 C 26.804688 59.53125 25.863281 59.371094 25.585938 58.660156 C 25.089844 57.414062 24.832031 56.070312 24.832031 54.691406 C 24.832031 51.820312 25.949219 49.128906 27.972656 47.101562 Z M 44.296875 49.792969 C 44.726562 49.363281 45.417969 49.363281 45.847656 49.792969 L 49.972656 53.917969 C 50.398438 54.34375 50.398438 55.039062 49.972656 55.464844 L 36.339844 69.097656 C 35.914062 69.527344 35.21875 69.527344 34.789062 69.097656 L 30.664062 64.972656 C 30.238281 64.546875 30.238281 63.851562 30.664062 63.425781 Z M 47.035156 28.042969 L 47 28.011719 C 50.320312 24.210938 52.128906 19.398438 52.128906 14.308594 C 52.128906 14 52.390625 13.675781 52.953125 14.234375 L 54.941406 16.222656 C 54.953125 16.234375 54.976562 16.257812 54.984375 16.265625 C 59.125 20.453125 59.113281 27.230469 54.941406 31.40625 L 46.410156 39.9375 C 45.871094 40.476562 44.933594 40.316406 44.648438 39.609375 C 44.152344 38.359375 43.890625 37.015625 43.890625 35.632812 C 43.890625 32.773438 45.007812 30.070312 47.035156 28.042969 Z M 63.363281 26.273438 C 63.4375 25.785156 63.925781 25.296875 64.480469 25.773438 C 66.398438 27.429688 67.625 30.496094 67.625 33.367188 C 67.625 36.226562 66.507812 38.929688 64.480469 40.957031 L 55.425781 50.011719 C 55 50.4375 54.3125 50.441406 53.882812 50.015625 L 49.734375 45.914062 C 49.300781 45.488281 49.300781 44.792969 49.730469 44.363281 L 58.808594 35.273438 C 61.335938 32.734375 62.859375 29.574219 63.363281 26.273438 Z M 59.410156 63.355469 C 60.976562 65.273438 61.832031 67.640625 61.832031 70.148438 C 61.832031 73.007812 60.714844 75.699219 58.6875 77.738281 L 51.839844 84.585938 C 51.410156 85.015625 50.71875 85.015625 50.289062 84.585938 L 40.21875 74.515625 C 39.789062 74.085938 39.789062 73.394531 40.21875 72.964844 L 53.851562 59.34375 C 54.277344 58.914062 54.972656 58.917969 55.398438 59.34375 Z M 81.613281 77.738281 L 59.308594 55.421875 C 58.882812 54.996094 58.882812 54.300781 59.308594 53.875 L 68.359375 44.824219 C 71.535156 41.660156 73.21875 37.402344 73.097656 32.90625 C 72.980469 28.617188 71.039062 24.574219 68.003906 21.542969 L 46.78125 0.320312 C 46.359375 -0.105469 45.671875 -0.105469 45.25 0.320312 L 42.878906 2.6875 C 42.464844 3.101562 42.46875 3.757812 42.855469 4.195312 C 45.648438 7.378906 46.992188 11.53125 46.574219 15.847656 C 46.222656 19.492188 44.464844 22.867188 41.875 25.457031 L 5.09375 62.238281 C 2.042969 65.289062 0.101562 69.355469 0.00390625 73.667969 C -0.0976562 78.148438 1.597656 82.359375 4.742188 85.515625 L 58.996094 139.757812 C 59.425781 140.1875 60.121094 140.1875 60.546875 139.757812 L 62.867188 137.4375 C 63.292969 137.011719 63.296875 136.320312 62.871094 135.894531 L 62.214844 135.230469 C 60.082031 133.101562 58.957031 130.226562 59.082031 127.1875 C 59.195312 124.394531 60.484375 121.78125 62.460938 119.804688 L 81.570312 100.695312 L 81.613281 100.664062 C 84.679688 97.597656 86.355469 93.519531 86.355469 89.195312 C 86.355469 84.867188 84.679688 80.792969 81.613281 77.738281 "
         style=" stroke:none;fill-rule:nonzero;fill:rgb(12.452698%,9.849548%,8.714294%);fill-opacity:1;" />
    </g>
  </g>
</svg>
